<?xml version="1.0" encoding="UTF-8" standalone="no"?>
<svg
   xmlns:dc="http://purl.org/dc/elements/1.1/"
   xmlns:cc="http://creativecommons.org/ns#"
   xmlns:rdf="http://www.w3.org/1999/02/22-rdf-syntax-ns#"
   xmlns:svg="http://www.w3.org/2000/svg"
   xmlns="http://www.w3.org/2000/svg"
   viewBox="0 0 576 90.440002"
   height="90.440002"
   width="576"
   xml:space="preserve"
   id="svg2"
   version="1.1"><metadata
     id="metadata8"><rdf:RDF><cc:Work
         rdf:about=""><dc:format>image/svg+xml</dc:format><dc:type
           rdf:resource="http://purl.org/dc/dcmitype/StillImage" /></cc:Work></rdf:RDF></metadata><defs
     id="defs6" /><g
     transform="matrix(1.3333333,0,0,-1.3333333,0,90.44)"
     id="g10"><g
       transform="scale(0.1)"
       id="g12"><path
         id="path14"
         style="fill:#ffffff;fill-opacity:1;fill-rule:nonzero;stroke:none"
         d="m 1803.7,226.809 c -0.03,0.039 -0.05,0.078 -0.07,0.117 0.03,-0.059 0.07,-0.117 0.1,-0.168 v 0 c -0.01,0.019 -0.02,0.039 -0.03,0.051 z m -90.97,84.668 c -0.23,-0.372 -0.79,-0.586 -1.66,-0.586 h -73.92 c -0.66,0 -1.15,0.214 -1.45,0.644 -0.29,0.449 -0.29,1.094 0.15,1.934 l 36.96,93.496 c 0,0 0.84,2.031 1.16,2.687 0.13,0.25 0.22,0.45 0.35,0.594 0.14,0.149 0.3,0.234 0.52,0.223 0.13,-0.004 0.33,-0.035 0.48,-0.184 0.22,-0.211 0.31,-0.449 0.37,-0.633 0.27,-0.672 1.03,-2.687 1.03,-2.687 l 36.08,-93.926 c 0.23,-0.625 0.23,-1.152 -0.07,-1.562 z M 1845.77,202.18 c -0.02,0.105 -0.06,0.203 -0.09,0.312 -0.01,0.039 -0.02,0.078 -0.03,0.117 -0.01,0.028 -0.02,0.055 -0.03,0.098 -0.02,0.078 -0.04,0.145 -0.07,0.215 -0.03,0.098 -0.08,0.176 -0.13,0.273 v 0 0 c -0.16,0.321 -0.34,0.625 -0.59,0.879 -0.71,0.723 -1.8,1.153 -3.32,1.153 -1.8,0 -3.7,0.066 -5.66,0.175 -1.01,0.047 -1.71,0.067 -2.61,0.098 -1.1,0.039 -2.08,0.086 -3.04,0.156 -5.76,0.449 -10.41,2.715 -14.2,5.457 -3.76,2.766 -7.03,6.426 -9.7,11.008 -0.87,1.445 -1.72,2.996 -2.57,4.629 0,0 0,0 0,0.008 -1.78,3.449 -3.53,7.285 -5.26,11.504 l -99.99,232.597 c -1.57,3.887 -3.04,6.965 -4.42,9.235 -0.07,0.113 -3.42,5.465 -7.61,5.465 h -0.39 -0.39 c -3.45,0 -6.33,-3.641 -7.29,-4.981 -1.45,-2.316 -3.03,-5.539 -4.71,-9.719 l -99.99,-232.597 c -1.74,-4.227 -3.49,-8.074 -5.28,-11.532 -0.39,-0.753 -0.78,-1.484 -1.17,-2.191 v -0.008 c -0.05,-0.086 -0.1,-0.164 -0.14,-0.242 l -0.01,-0.012 c -0.41,-0.73 -0.82,-1.453 -1.23,-2.156 -2.69,-4.582 -5.95,-8.242 -9.71,-11.008 -3.78,-2.742 -8.43,-5.144 -14.19,-5.457 -3.15,-0.156 -3.64,-0.215 -5.65,-0.312 -1.95,-0.09 -3.87,-0.117 -5.67,-0.117 -1.51,0 -2.6,-0.43 -3.33,-1.153 -0.12,-0.136 -0.22,-0.285 -0.32,-0.429 -0.09,-0.137 -0.16,-0.274 -0.23,-0.411 -0.01,-0.019 -0.02,-0.019 -0.03,-0.039 -0.04,-0.09 -0.09,-0.175 -0.13,-0.273 -0.06,-0.137 -0.09,-0.274 -0.13,-0.41 -0.02,-0.098 -0.05,-0.188 -0.07,-0.285 -0.01,-0.008 -0.01,-0.028 -0.01,-0.047 -0.01,-0.039 -0.01,-0.078 -0.02,-0.117 -0.04,-0.235 -0.07,-0.489 -0.07,-0.743 0,-1.523 0.58,-2.531 1.65,-3.125 1.18,-0.566 2.91,-0.781 5.3,-0.781 1.93,0 3.83,0.02 5.71,0.039 0.01,0 0.02,0 0.04,0 0.04,0 0.07,0 0.11,0 2.14,0.027 4.26,0.067 6.34,0.117 0.41,0 0.81,0.02 1.22,0.02 0.91,0.027 1.82,0.047 2.72,0.074 1.12,0.031 2.25,0.063 3.35,0.102 6.3,0.214 11.6,0.371 16.09,0.574 4.42,0.215 7.39,0.371 8.77,0.371 4.12,0 8.69,-0.156 13.69,-0.371 3.38,-0.137 6.81,-0.262 10.25,-0.391 0.03,-0.008 0.07,-0.008 0.1,-0.008 1.55,-0.058 3.09,-0.117 4.65,-0.175 5,-0.196 9.63,-0.352 13.91,-0.352 1.95,0 3.49,0.215 4.49,0.781 0.51,0.274 0.87,0.645 1.13,1.102 0,0.012 0,0.012 0.01,0.012 0,0.007 0.01,0.027 0.01,0.039 0.06,0.097 0.1,0.191 0.15,0.3 0.07,0.188 0.14,0.364 0.19,0.559 0.07,0.332 0.12,0.703 0.12,1.113 0.05,1.094 -0.31,2.032 -1.03,2.754 -0.8,0.723 -2.31,1.153 -4.62,1.153 h -5.65 c -5.83,0 -9.79,0.945 -12.04,2.753 -2.26,1.836 -3.25,4.415 -3.18,7.684 0,2.238 0.43,5.441 1.36,9.5 0.87,4.066 2.32,8.461 4.28,13.098 l 20.44,49.562 c 0.35,1.114 0.79,1.739 1.24,2.129 0.42,0.352 1.22,0.488 2.23,0.488 h 90 c 0.87,0 1.68,-0.136 2.33,-0.488 0.64,-0.39 1.15,-1.015 1.59,-2.129 l 29.55,-74.316 c 0.81,-2.266 0.75,-4.063 -0.06,-5.586 -0.81,-1.406 -1.88,-2.246 -3.13,-2.598 v 0 l -2.27,-0.469 c -1.12,-0.246 -2.22,-1.074 -2.66,-2.304 -0.1,-0.391 -0.17,-0.793 -0.15,-1.231 0,-0.82 0.17,-1.484 0.48,-2.011 0.26,-0.469 0.63,-0.84 1.13,-1.114 1,-0.566 3.87,-0.781 5.83,-0.781 4.27,0 8.9,0.156 13.9,0.352 1.43,0.058 2.83,0.105 4.24,0.164 h 0.02 c 3.61,0.136 7.2,0.265 10.75,0.41 4.99,0.215 9.57,0.371 13.68,0.371 1.39,0 4.35,-0.156 8.77,-0.371 4.5,-0.203 9.8,-0.36 16.09,-0.574 4.44,-0.137 9.03,-0.254 13.74,-0.313 h 0.01 c 1.9,-0.019 3.81,-0.039 5.74,-0.039 2.4,0 4.13,0.215 5.3,0.781 0.86,0.469 1.38,1.211 1.56,2.254 0.05,0.227 0.07,0.461 0.08,0.723 0,0.051 0.01,0.09 0,0.148 0,0.301 -0.02,0.586 -0.07,0.86 -0.02,0.105 0.05,-0.274 0,0" /><path
         id="path16"
         style="fill:#ffffff;fill-opacity:1;fill-rule:evenodd;stroke:none"
         d="M 259.523,5.1875 C 140.375,47.1094 0,141.457 0,282.082 V 562.09 l 25.6406,11.953 C 168.305,640.523 347.141,678.277 504.125,678.277 H 548.52 V 282.082 C 548.52,141.445 408.137,47.0898 288.988,5.1875 L 274.262,0 Z M 44.3945,533.793 C 158.316,586.887 330.781,633.883 504.125,633.883 V 282.082 C 504.125,166.27 379.992,84.2695 274.262,47.0703 168.516,84.2695 44.3945,166.27 44.3945,282.082 v 251.711" /><path
         id="path18"
         style="fill:#ffffff;fill-opacity:1;fill-rule:nonzero;stroke:none"
         d="m 311.309,548.156 c -0.231,-0.109 -0.457,-0.211 -0.684,-0.32 0.215,0.113 0.461,0.211 0.684,0.32" /><path
         id="path20"
         style="fill:#ffffff;fill-opacity:1;fill-rule:nonzero;stroke:none"
         d="m 312.387,548.625 c -0.375,-0.148 -0.731,-0.309 -1.078,-0.469 0.351,0.16 0.707,0.321 1.078,0.469" /><path
         id="path22"
         style="fill:#ffffff;fill-opacity:1;fill-rule:nonzero;stroke:none"
         d="m 310.625,547.836 c -0.02,-0.012 -0.039,-0.023 -0.062,-0.039 0.023,0.016 0.042,0.027 0.062,0.039" /><path
         id="path24"
         style="fill:#ffffff;fill-opacity:1;fill-rule:nonzero;stroke:none"
         d="m 345.094,142.336 c -1.012,0.828 -2.602,1.328 -4.906,1.387 -2.09,0.027 -4.309,0.066 -6.852,0.156 -2.465,0.066 -4.914,0.215 -7.367,0.449 -2.457,0.223 -4.621,0.477 -6.531,0.781 -3.918,0.606 -7.004,1.661 -9.223,3.223 -2.156,1.512 -3.762,3.613 -4.762,6.141 -0.996,2.539 -1.777,5.539 -2.148,9.074 -0.617,5.605 -1.043,12.664 -1.309,21.191 -0.277,8.535 -0.391,18.301 -0.461,29.207 -0.082,10.91 -0.082,22.668 -0.082,35.344 v 217.973 c -3.39,0.179 -6.805,0.258 -10.191,0.254 -13.145,-0.024 -27.016,-0.817 -39.856,-3.653 -1.445,-0.324 -2.879,-0.648 -4.343,-1.019 V 249.289 c 0,-12.676 0,-24.434 -0.071,-35.344 -0.082,-10.906 -0.238,-20.586 -0.476,-29.043 -0.227,-8.535 -0.703,-15.437 -1.305,-20.906 -0.621,-5.683 -1.684,-10.058 -3.363,-13.047 -1.707,-3 -4.559,-4.953 -8.625,-5.84 -1.844,-0.421 -3.907,-0.859 -6.297,-1.074 -2.297,-0.226 -4.992,-0.265 -7.988,-0.312 -2.458,-0.039 -4.231,-0.539 -5.145,-1.387 -0.918,-0.84 -1.348,-1.777 -1.313,-2.766 0.051,-1.375 0.684,-2.39 2.008,-3.066 1.371,-0.715 3.285,-1.063 5.836,-1.063 4.149,0 8.676,0.067 13.832,0.215 5.067,0.145 10.145,0.301 15.293,0.457 5.074,0.157 9.75,0.313 13.973,0.469 4.226,0.156 7.535,0.227 9.914,0.227 3.769,0 9.137,-0.157 15.984,-0.383 6.836,-0.223 14.52,-0.399 23.051,-0.625 8.602,-0.215 17.43,-0.36 26.43,-0.36 2.387,0 4.207,0.391 5.613,1.063 1.441,0.703 2.168,1.691 2.219,3.066 0.043,0.989 -0.477,1.907 -1.539,2.766" /><path
         id="path26"
         style="fill:#ffffff;fill-opacity:1;fill-rule:nonzero;stroke:none"
         d="m 398.852,268.742 c -0.688,1.074 -1.528,1.602 -2.524,1.68 -1.312,0 -2.234,-0.391 -2.773,-1.231 -0.547,-0.851 -0.996,-2.226 -1.383,-4.316 -0.461,-2.52 -1.391,-5.832 -2.695,-9.824 -1.372,-4.004 -3.153,-7.981 -5.297,-12.129 -2.223,-4.16 -4.774,-7.766 -7.684,-10.762 -5.301,-5.293 -11.223,-9.297 -17.746,-12.004 -6.461,-2.605 -13.75,-4.367 -21.824,-5.293 -5.422,-0.554 -11.309,-0.937 -17.672,-1.074 0.043,-6.414 0.094,-12.832 0.219,-19.25 4.773,0.141 9.57,0.375 14.375,0.649 9.156,0.546 17.754,1.472 25.824,2.773 8.062,1.309 14.906,2.996 20.508,5.144 2.316,0.86 4,1.77 5.23,2.629 1.153,0.84 2.149,1.914 2.836,3.204 0.699,1.406 1.387,3.32 2.078,5.703 0.844,2.773 1.692,6.062 2.625,10.078 0.914,3.965 1.762,8.203 2.598,12.578 0.855,4.383 1.625,8.601 2.238,12.539 0.688,3.984 1.223,7.363 1.61,10.047 0.386,2.687 0.609,4.375 0.609,4.992 0,1.473 -0.379,2.703 -1.152,3.867" /><path
         id="path28"
         style="fill:#ffffff;fill-opacity:1;fill-rule:nonzero;stroke:none"
         d="m 397.629,489.535 c -0.691,0.856 -2.082,1.231 -4.074,1.231 -6.61,0.312 -13.289,1.004 -20.047,2.144 -5.539,0.953 -11.348,1.957 -17.399,3.086 -1.339,0.25 -2.675,0.5 -4.039,0.762 -6.687,1.086 -13.519,1.93 -20.527,2.621 -1.777,0.176 -3.539,0.344 -5.293,0.496 -5.152,0.453 -10.211,0.809 -15.137,1.035 -6.597,0.305 -12.597,0.461 -18.062,0.461 -20.653,-0.082 -38.715,-1.992 -54.231,-5.613 -15.531,-3.688 -28.972,-8.676 -40.254,-14.977 -11.308,-6.297 -20.984,-13.441 -29.058,-21.363 -8.899,-8.832 -16.36,-18.055 -22.27,-27.805 -5.929,-9.679 -10.613,-19.367 -13.984,-28.965 -3.457,-9.617 -5.852,-18.671 -7.305,-27.285 -3.445,-21.406 -2.496,-40.461 1.926,-61.992 2.762,-13.535 7.766,-26.894 14.898,-40.117 7.223,-13.137 17.364,-25.508 30.426,-36.953 10.528,-9.211 22.285,-16.985 35.274,-23.203 6.5,-3.118 13.398,-5.821 20.703,-8.145 0.039,3.027 0.07,6.074 0.082,9.11 0.058,7.394 0.074,14.746 0.078,22.121 -2.949,1.855 -5.809,3.828 -8.578,5.886 -11.992,8.918 -22.192,19.278 -30.727,31.184 -8.535,11.91 -15.054,24.824 -19.668,38.809 -8.418,25.937 -8.308,54.929 -4.074,81.664 1.992,12.058 5.59,23.519 10.902,34.273 5.301,10.84 12.84,20.813 22.762,30.043 4.672,4.531 10.824,8.902 18.43,12.977 7.597,4.152 17.359,7.535 29.191,10.148 11.832,2.613 26.352,3.988 43.649,4.078 12.066,0 23.195,-1.012 33.488,-2.937 10.301,-1.914 19.367,-4.524 27.207,-7.754 7.906,-3.301 14.195,-6.918 19.043,-10.981 1.562,-1.226 3.027,-2.605 4.406,-4.117 0.719,-0.863 1.418,-1.746 2.094,-2.664 2.437,-3.398 4.426,-7.34 5.996,-11.777 1.504,-4.43 2.676,-8.633 3.438,-12.786 0.597,-3.554 0.992,-6.554 1.14,-8.964 0.028,-0.403 0.047,-0.793 0.063,-1.164 0.027,-0.954 0.097,-1.758 0.199,-2.454 0.016,-0.109 0.031,-0.218 0.047,-0.32 v 0 c 0.047,-0.25 0.097,-0.461 0.152,-0.676 0.094,-0.386 0.195,-0.738 0.324,-1.015 0.008,-0.028 0.028,-0.047 0.043,-0.074 0.356,-0.743 1.039,-1.2 2.008,-1.438 0.125,-0.012 0.25,-0.027 0.383,-0.027 1.148,0 2.144,0.601 2.984,1.91 0.86,1.308 1.387,3.457 1.625,6.383 0.047,0.414 0.086,0.906 0.114,1.449 0.082,1.363 0.136,3.117 0.195,5.308 0.07,3.082 0.07,6.618 0.156,10.528 0.074,3.922 0.149,7.914 0.149,11.898 0.078,4.008 0.222,7.614 0.308,10.918 0.305,4.688 0.613,8.531 0.93,11.379 0.215,2.84 0.449,5.145 0.676,6.758 0.16,1.605 0.226,2.996 0.226,3.996 0.09,1.23 -0.304,2.148 -0.988,2.91" /><path
         id="path30"
         style="fill:#ffffff;fill-opacity:1;fill-rule:nonzero;stroke:none"
         d="m 332.785,557.902 c -1.562,0.477 -3.847,0.735 -6.906,0.75 -3.66,-0.015 -7.664,-0.082 -12,-0.152 -4.859,-0.062 -9.727,-0.141 -14.66,-0.301 -4.934,-0.152 -9.414,-0.219 -13.61,-0.297 -4.16,-0.086 -7.504,-0.152 -10.078,-0.152 -0.57,0 -1.195,0.004 -1.828,0.008 -0.637,-0.004 -1.265,-0.008 -1.836,-0.008 -2.574,0 -5.918,0.066 -10.082,0.152 -4.187,0.078 -8.68,0.145 -13.609,0.297 -4.934,0.16 -9.797,0.239 -14.656,0.301 -4.336,0.07 -8.34,0.137 -12,0.152 -3.059,-0.015 -5.344,-0.273 -6.907,-0.75 -1.578,-0.5 -2.429,-1.3 -2.429,-2.437 0,-1.738 0.531,-2.973 1.675,-3.645 0.094,-0.058 0.215,-0.097 0.321,-0.144 1.054,-0.508 2.519,-0.762 4.386,-0.762 2.508,0 5.012,-0.082 7.442,-0.387 2.512,-0.308 4.863,-0.765 7.137,-1.433 2.886,-0.856 5.324,-2.059 7.218,-3.571 1.887,-1.515 3.364,-3.668 4.407,-6.378 1.019,-2.684 1.793,-6.153 2.058,-10.559 0.086,-1.75 0.125,-6.316 0.164,-9.629 0.016,-1.133 0.031,-2.121 0.047,-2.801 l 0.031,-0.695 c 8.785,1.512 17.707,2.465 26.633,3.008 6.348,0.39 12.699,0.574 19.008,0.59 2.562,0 5.121,-0.043 7.695,-0.102 0.414,-0.012 0.824,-0.008 1.246,-0.016 0.094,1.668 0.215,8.122 0.301,9.645 0.336,6.758 1.555,11.723 3.723,14.953 1.066,1.598 2.512,2.891 4.367,3.887 0.02,0.012 0.039,0.027 0.066,0.035 0.215,0.109 0.442,0.211 0.668,0.312 0.344,0.168 0.7,0.325 1.071,0.469 0.765,0.309 1.562,0.598 2.406,0.852 2.273,0.668 4.625,1.125 7.137,1.433 2.429,0.305 4.933,0.387 7.441,0.387 1.867,0 3.336,0.254 4.387,0.762 0.101,0.047 0.23,0.086 0.32,0.144 1.149,0.672 1.676,1.907 1.676,3.645 0,1.137 -0.856,1.937 -2.43,2.437" /><path
         id="path32"
         style="fill:#ffffff;fill-opacity:1;fill-rule:nonzero;stroke:none"
         d="m 2092.63,267.414 c -1.47,0.059 -2.54,-0.5 -3.21,-1.625 -0.64,-1.07 -1.15,-3.023 -1.58,-5.777 -0.43,-2.383 -1.31,-4.981 -2.54,-7.891 -1.16,-2.91 -2.68,-5.801 -4.49,-8.691 -1.82,-2.989 -3.84,-5.664 -6.02,-8.203 -4.99,-5.586 -10.57,-9.786 -16.81,-12.598 -6.23,-2.832 -13.47,-4.727 -21.74,-5.645 -8.26,-0.949 -18.05,-1.386 -29.27,-1.32 -10.37,0 -21.1,1.672 -32.1,5.07 -11.02,3.34 -21.68,8.418 -32.03,15.235 -10.29,6.797 -19.57,15.429 -27.83,25.703 -8.26,10.379 -14.85,22.48 -19.7,36.375 -4.85,13.937 -7.33,29.641 -7.47,47.18 -0.08,12.101 0.87,23.91 2.83,35.578 2.03,11.582 5.57,22.531 10.72,32.828 5.07,10.293 12.31,19.504 21.67,27.676 5.72,4.937 12.1,8.91 18.99,11.957 6.95,3.117 14.78,5.359 23.46,6.812 8.71,1.445 18.63,2.094 29.72,2.094 17.68,-0.07 32.75,-2.172 45.29,-6.16 12.54,-3.891 22.03,-9.133 28.62,-15.559 4.79,-4.867 8.41,-10.305 10.82,-16.39 2.43,-6.016 3.75,-12.016 3.96,-17.965 0,-2.403 0.3,-4.348 0.8,-5.735 0.58,-1.383 1.66,-2.09 3.12,-2.09 1.74,0.071 2.97,0.942 3.77,2.618 0.79,1.644 1.24,3.836 1.45,6.515 0.13,1.887 0.2,4.473 0.28,7.688 0.07,3.183 0.15,6.66 0.22,10.496 0.08,3.84 0.14,7.676 0.28,11.445 0.17,3.84 0.31,7.242 0.53,10.371 0.28,4.336 0.55,7.754 0.85,10.438 0.23,2.601 0.45,4.699 0.64,6.211 0.17,1.593 0.24,2.824 0.24,3.777 0.07,1.082 -0.36,2.027 -1.18,2.816 -0.86,0.797 -2.29,1.321 -4.47,1.536 -5.66,0.711 -11.6,1.586 -17.98,2.754 -6.37,1.089 -13.11,2.242 -20.29,3.335 -5.72,0.715 -11.3,1.375 -16.81,1.957 -5.51,0.641 -11.38,1.09 -17.61,1.442 -6.23,0.359 -13.33,0.5 -21.22,0.5 -18.92,0 -35.8,-1.586 -50.58,-4.692 -14.79,-3.121 -27.96,-7.621 -39.56,-13.484 -11.61,-5.812 -21.96,-12.754 -31.17,-20.937 -9.04,-8.2 -16.52,-16.895 -22.38,-26.012 -5.88,-9.141 -10.43,-18.274 -13.7,-27.414 -3.27,-9.113 -5.51,-17.813 -6.81,-26.004 -1.3,-8.188 -1.96,-15.492 -1.9,-21.879 -0.06,-11.973 1.25,-24.355 4,-37.109 2.76,-12.735 7.69,-25.215 14.64,-37.532 6.95,-12.304 16.74,-23.836 29.2,-34.492 11.59,-9.629 24.28,-17.453 37.89,-23.328 13.7,-5.859 28.33,-10.137 43.92,-12.754 15.58,-2.676 32.1,-3.984 49.49,-3.906 8.41,0 16.88,0.301 25.58,0.801 8.62,0.496 16.81,1.386 24.34,2.597 7.61,1.231 14.05,2.813 19.2,4.864 3.19,1.148 5.44,2.539 6.81,3.984 1.38,1.445 2.46,3.758 3.2,6.875 0.79,2.605 1.59,5.742 2.38,9.578 0.8,3.762 1.54,7.754 2.25,11.953 0.67,4.121 1.31,8.196 1.82,12.102 0.58,3.828 1.01,7.156 1.3,9.902 0.36,2.774 0.5,4.649 0.5,5.586 0,1.602 -0.43,3.055 -1.15,4.434 -0.8,1.308 -1.9,2.019 -3.18,2.109" /><path
         id="path34"
         style="fill:#ffffff;fill-opacity:1;fill-rule:nonzero;stroke:none"
         d="m 4118.54,335.586 c -1.03,0.371 -2.53,0.508 -4.73,0.508 -3.02,0 -6.51,-0.067 -10.49,-0.137 -4.05,-0.078 -7.98,-0.137 -11.97,-0.301 -3.89,-0.148 -7.22,-0.215 -9.99,-0.285 -2.77,-0.078 -4.44,-0.125 -4.92,-0.125 -0.59,0 -2.47,0.047 -5.51,0.125 -3.05,0.07 -6.9,0.137 -11.38,0.285 -4.51,0.164 -9.27,0.223 -14.2,0.301 -5,0.07 -9.7,0.137 -14.13,0.137 -2.19,0.07 -3.69,-0.137 -4.63,-0.508 -1.03,-0.43 -1.46,-1.238 -1.46,-2.527 0.07,-0.723 0.43,-1.387 1.01,-2.024 0.67,-0.652 1.39,-0.957 2.03,-1.015 1.23,0 2.6,-0.079 4.29,-0.157 1.59,-0.086 3.25,-0.125 4.78,-0.281 1.58,-0.148 2.96,-0.312 3.99,-0.43 3.9,-0.722 6.94,-1.66 9.18,-2.91 2.25,-1.23 3.94,-3.117 4.93,-5.644 1.09,-2.618 1.75,-6.172 2.04,-10.801 0.28,-4.57 0.43,-10.586 0.34,-18.047 v -63.906 c 0,-2.324 -0.27,-4.133 -0.93,-5.43 -0.63,-1.387 -1.52,-2.48 -2.75,-3.34 -1.16,-0.871 -2.53,-1.738 -4.12,-2.539 -3.41,-1.875 -7.46,-3.332 -12.18,-4.336 -4.64,-1.015 -9.57,-1.679 -14.63,-2.121 -5.06,-0.34 -9.96,-0.496 -14.49,-0.496 -11.74,-0.059 -23.12,1.231 -34.29,3.77 -11.08,2.539 -21.89,6.679 -32.45,12.324 -10.6,5.722 -20.95,13.25 -31.1,22.597 -3.47,3.192 -7.45,7.832 -12.01,13.926 -4.5,6.141 -8.93,13.614 -13.27,22.324 -4.28,8.758 -7.89,18.672 -10.72,29.688 -2.84,11.113 -4.35,23.191 -4.43,36.238 0.08,14.41 1.67,27.531 4.87,39.489 3.19,11.96 7.68,22.398 13.32,31.445 5.65,9.062 12.19,16.441 19.63,22.109 9.73,7.305 19.28,12.598 28.56,16.063 9.35,3.414 18.33,5.586 26.97,6.617 8.6,0.93 16.8,1.379 24.47,1.223 16.55,-0.071 30.79,-1.52 42.82,-4.336 11.96,-2.754 21.75,-6.395 29.35,-10.731 7.54,-4.348 12.9,-8.918 16.1,-13.633 2.02,-2.972 3.61,-5.937 4.84,-9.113 1.25,-3.117 2.19,-6.035 2.76,-8.699 0.59,-2.68 0.95,-4.867 1.09,-6.516 0,-1.75 0.14,-3.113 0.5,-4.14 0.36,-1.016 1.1,-1.532 2.1,-1.532 1.3,-0.066 2.39,0.516 3.21,1.66 0.71,1.094 1.14,3.211 1.14,6.18 0,9.184 0.17,16.875 0.39,23.02 0.22,6.183 0.42,11.179 0.7,14.937 0.29,3.844 0.49,6.879 0.74,9.063 0.2,2.172 0.36,3.918 0.36,5.14 0.06,0.946 -0.31,1.739 -0.96,2.399 -0.62,0.715 -1.96,1.09 -3.83,1.09 -3.27,0 -6.74,0.214 -10.51,0.644 -3.77,0.36 -7.41,0.867 -11.01,1.449 -3.55,0.661 -6.65,1.246 -9.34,1.821 -1.89,0.422 -4.88,1.011 -8.83,1.66 -4.02,0.734 -8.72,1.383 -14.14,2.027 -5.45,0.66 -11.18,1.231 -17.34,1.656 -6.07,0.516 -12.27,0.731 -18.39,0.731 -9.79,0.07 -20.38,-0.356 -31.68,-1.445 -11.36,-1.079 -22.97,-3.247 -34.91,-6.661 -11.88,-3.418 -23.64,-8.476 -35.15,-15.355 -8.54,-5.086 -16.67,-11.523 -24.27,-19.293 -7.69,-7.668 -14.5,-16.664 -20.37,-26.887 -5.93,-10.133 -10.66,-21.511 -14.05,-34.113 -3.4,-12.535 -5.14,-26.238 -5.21,-41.016 0.07,-11.511 1.3,-22.605 3.82,-33.093 2.48,-10.598 5.88,-20.383 10.24,-29.434 4.28,-9.141 9.12,-17.246 14.54,-24.512 5.45,-7.168 11.11,-13.242 17.04,-18.183 10.71,-8.899 21.95,-16.075 33.55,-21.367 11.67,-5.372 23.18,-9.336 34.58,-11.973 11.35,-2.578 22.02,-4.258 31.94,-5.129 9.99,-0.781 18.63,-1.16 26.01,-1.082 5.58,0 11.82,0.301 18.64,0.801 6.8,0.586 13.9,1.445 21.22,2.754 7.32,1.23 14.48,2.968 21.58,5.058 7.1,2.11 13.7,4.774 19.87,7.91 1.59,0.711 2.78,1.582 3.47,2.598 0.72,0.938 1.22,2.676 1.47,5.234 0.22,2.598 0.27,6.649 0.27,12.168 v 41.309 c 0,7.676 0,14.559 0.07,20.566 0,6.012 0.13,11.953 0.36,17.684 0.36,6.437 1.52,11.301 3.64,14.484 2.01,3.203 5.64,5.164 10.71,5.957 2.18,0.43 3.98,0.625 5.43,0.789 1.52,0.079 2.9,0.079 4.15,0.079 0.71,0.058 1.36,0.363 2.02,1.015 0.66,0.637 0.91,1.301 1.01,2.024 0,1.289 -0.45,2.097 -1.37,2.527" /><path
         id="path36"
         style="fill:#ffffff;fill-opacity:1;fill-rule:nonzero;stroke:none"
         d="m 3800.52,247.414 c -1.1,0.059 -1.9,-0.375 -2.47,-1.152 -0.57,-0.879 -1.02,-2.348 -1.46,-4.512 -0.71,-4.844 -1.81,-8.996 -3.25,-12.238 -1.46,-3.262 -3.31,-6.016 -5.66,-8.106 -2.33,-2.117 -5.16,-3.914 -8.47,-5.301 -3.4,-1.3 -7.46,-2.167 -12.11,-2.753 -4.72,-0.579 -9.33,-0.879 -13.97,-1.016 -4.71,-0.137 -8.77,-0.137 -12.18,-0.137 -9.44,-0.078 -17.04,0.352 -22.97,1.153 -5.94,0.8 -10.52,2.246 -13.7,4.355 -3.25,2.09 -5.52,5.078 -6.82,8.965 -1.31,3.926 -2.01,8.933 -2.18,15.078 -0.08,1.609 -0.11,4.277 -0.11,8.203 -0.11,3.906 -0.11,8.399 -0.11,13.535 0.11,5.137 0.11,10.438 0.11,15.801 0.03,5.359 0.03,10.274 0.03,14.844 0.08,4.492 0.08,8.047 0.08,10.664 v 30.859 c 0,0.731 0.17,1.309 0.51,1.817 0.36,0.507 1.03,0.789 2.1,0.789 1.39,0 3.92,0 7.56,-0.067 3.62,0 7.8,-0.058 12.59,-0.148 4.86,-0.067 9.71,-0.223 14.72,-0.383 4.93,-0.133 9.49,-0.262 13.54,-0.406 4.14,-0.219 7.26,-0.43 9.43,-0.723 4.85,-0.578 8.69,-1.465 11.37,-2.539 2.69,-1.086 4.65,-2.383 5.79,-3.918 1.23,-1.445 2.03,-3.113 2.41,-4.832 0.87,-2.414 1.35,-4.59 1.51,-6.601 0.23,-1.954 0.29,-3.848 0.23,-5.606 0,-1.055 0.22,-1.934 0.65,-2.519 0.44,-0.645 1.08,-0.95 1.94,-0.95 1.3,0.09 2.19,0.891 2.74,2.317 0.52,1.465 0.75,3.047 0.75,4.636 0,1.008 0.08,2.911 0.31,5.735 0.11,2.832 0.33,5.937 0.57,9.277 0.27,3.399 0.57,6.387 0.85,8.926 0.5,5.996 1.17,10.715 1.9,13.973 0.71,3.254 1.07,5.425 1.13,6.449 0,1.082 -0.2,1.875 -0.57,2.312 -0.43,0.5 -0.93,0.731 -1.59,0.731 -0.63,0 -1.45,-0.512 -2.29,-1.375 -0.98,-0.946 -2.05,-2.028 -3.36,-3.41 -1.88,-1.879 -4.33,-3.121 -7.38,-3.77 -2.98,-0.57 -6.75,-1.09 -11.33,-1.441 -1.88,-0.16 -4.98,-0.293 -9.48,-0.45 -4.49,-0.066 -9.63,-0.214 -15.36,-0.214 -5.72,-0.063 -11.45,-0.129 -17.02,-0.129 -5.59,-0.078 -10.37,-0.078 -14.35,-0.078 -4.06,0 -6.6,0 -7.69,0 -1.01,0 -1.67,0.355 -1.87,1.004 -0.23,0.664 -0.39,1.605 -0.31,2.906 v 100.426 c 0,1.316 0.17,2.316 0.44,2.972 0.31,0.66 0.87,0.938 1.74,0.938 0.95,0 3.27,0 6.82,-0.071 3.55,0 7.76,-0.07 12.61,-0.144 4.91,-0.063 9.85,-0.149 14.78,-0.207 5.01,-0.149 9.33,-0.219 13.18,-0.379 3.83,-0.137 6.45,-0.285 7.83,-0.504 6.88,-0.867 12.1,-1.738 15.81,-2.754 3.69,-0.937 6.3,-2.086 7.96,-3.461 1.68,-1.383 2.85,-3.051 3.62,-5.082 0.86,-2.258 1.45,-4.64 1.75,-7.18 0.29,-2.449 0.43,-4.418 0.43,-5.875 0,-1.503 0.2,-2.668 0.72,-3.546 0.46,-0.801 1.23,-1.223 2.32,-1.223 0.85,0.074 1.59,0.508 2.24,1.305 0.6,0.796 1.01,1.668 1.22,2.597 0.25,1.16 0.46,2.91 0.66,5.157 0.23,2.32 0.43,4.71 0.62,7.382 0.19,2.621 0.33,5.008 0.48,7.172 0.2,2.172 0.36,3.692 0.45,4.641 0.48,5.137 1.13,8.976 1.85,11.68 0.74,2.589 1.12,4.48 1.19,5.707 0,0.96 -0.15,1.753 -0.38,2.394 -0.28,0.734 -0.7,1.098 -1.36,1.098 -0.87,-0.078 -1.72,-0.383 -2.62,-0.739 -0.92,-0.359 -1.47,-0.628 -2.57,-0.918 -1.55,-0.41 -3.94,-0.742 -7.08,-1.175 -3.1,-0.43 -6.58,-0.809 -10.35,-1.082 -1.54,-0.071 -4.79,-0.157 -9.58,-0.157 -4.85,0 -10.65,-0.058 -17.38,-0.058 -6.73,0 -13.7,0.058 -20.93,0.058 -7.33,0 -14.14,0 -20.52,0.086 -6.38,0 -11.67,0 -15.79,0.071 -4.2,0 -6.52,0 -7.07,0 -0.67,0 -2.42,0.066 -5.41,0.136 -3.04,0.071 -6.64,0.137 -11.07,0.286 -4.43,0.16 -9.05,0.222 -13.91,0.289 -4.94,0.082 -9.56,0.144 -13.98,0.144 -2.19,0 -3.72,-0.211 -4.65,-0.719 -1.02,-0.433 -1.45,-1.234 -1.45,-2.308 0.07,-0.738 0.37,-1.383 1.03,-2.031 0.63,-0.661 1.27,-0.961 2.03,-1.036 1.22,0 2.6,0 4.26,-0.132 1.59,-0.079 3.26,-0.141 4.79,-0.293 1.59,-0.145 2.99,-0.282 3.97,-0.422 4.13,-0.582 7.34,-1.672 9.51,-3.274 2.17,-1.597 3.69,-3.836 4.49,-6.66 0.87,-2.832 1.43,-6.293 1.66,-10.508 0.15,-2.25 0.3,-4.707 0.44,-7.246 0.07,-2.597 0.2,-5.652 0.2,-9.261 0.08,-3.633 0.16,-8.196 0.16,-13.637 0.1,-5.438 0.1,-12.18 0.1,-20.211 0,-8.043 0,-17.754 0,-29.195 v -65.223 c 0,-11.965 0,-22.981 -0.1,-33.203 -0.08,-10.196 -0.29,-19.278 -0.57,-27.227 -0.29,-7.89 -0.82,-14.426 -1.54,-19.57 -0.51,-3.613 -1.07,-6.817 -1.71,-9.633 -0.59,-2.769 -1.53,-5.016 -2.76,-6.676 -1.24,-1.73 -3.15,-2.832 -5.52,-3.261 -1.81,-0.286 -3.76,-0.586 -5.87,-0.997 -2.12,-0.449 -4.05,-0.664 -5.88,-0.753 -1.07,-0.047 -1.88,-0.34 -2.31,-1.004 -0.5,-0.625 -0.72,-1.301 -0.72,-2.012 0,-1.113 0.51,-1.906 1.59,-2.324 1.01,-0.508 2.54,-0.723 4.49,-0.723 3.13,0 6.66,0.066 10.57,0.274 4,0.156 7.83,0.371 11.62,0.585 4.25,0.223 7.89,0.372 11.01,0.372 3.11,0.066 4.92,0.066 5.53,0.066 2.79,0 6.8,0 11.91,-0.066 5.17,-0.149 11.77,-0.372 19.81,-0.801 7.8,-0.215 17.28,-0.508 28.39,-0.793 11.1,-0.281 23.77,-0.516 38.12,-0.516 4.85,-0.058 8.69,0.078 11.53,0.352 2.83,0.293 4.9,1.093 6.36,2.461 1.46,1.386 2.61,3.652 3.41,6.757 0.59,2.04 1.15,4.922 1.75,8.477 0.57,3.621 1.15,7.402 1.66,11.289 0.57,3.945 0.94,7.324 1.3,10.301 0.36,2.961 0.5,4.844 0.5,5.578 0,1.367 -0.14,2.684 -0.5,3.836 -0.36,1.172 -1.04,1.75 -2.09,1.828" /><path
         id="path38"
         style="fill:#ffffff;fill-opacity:1;fill-rule:nonzero;stroke:none"
         d="m 4317.41,247.414 c -1.09,0.059 -1.89,-0.375 -2.46,-1.152 -0.57,-0.879 -1.02,-2.348 -1.46,-4.512 -0.72,-4.844 -1.82,-8.996 -3.26,-12.238 -1.45,-3.262 -3.31,-6.016 -5.66,-8.106 -2.32,-2.117 -5.16,-3.914 -8.47,-5.301 -3.4,-1.3 -7.46,-2.167 -12.1,-2.753 -4.71,-0.579 -9.32,-0.879 -13.97,-1.016 -4.72,-0.137 -8.77,-0.137 -12.19,-0.137 -9.43,-0.078 -17.04,0.352 -22.97,1.153 -5.93,0.8 -10.51,2.246 -13.7,4.355 -3.25,2.09 -5.51,5.078 -6.8,8.965 -1.32,3.926 -2.03,8.933 -2.19,15.078 -0.08,1.609 -0.12,4.277 -0.12,8.203 -0.11,3.906 -0.11,8.399 -0.11,13.535 0.11,5.137 0.11,10.438 0.11,15.801 0.04,5.359 0.04,10.274 0.04,14.844 0.08,4.492 0.08,8.047 0.08,10.664 v 30.859 c 0,0.731 0.16,1.309 0.51,1.817 0.36,0.507 1.02,0.789 2.1,0.789 1.38,0 3.91,0 7.55,-0.067 3.63,0 7.81,-0.058 12.59,-0.148 4.86,-0.067 9.72,-0.223 14.73,-0.383 4.92,-0.133 9.48,-0.262 13.53,-0.406 4.14,-0.219 7.27,-0.43 9.44,-0.723 4.84,-0.578 8.69,-1.465 11.37,-2.539 2.69,-1.086 4.64,-2.383 5.79,-3.918 1.23,-1.445 2.03,-3.113 2.41,-4.832 0.87,-2.414 1.34,-4.59 1.5,-6.601 0.24,-1.954 0.29,-3.848 0.24,-5.606 0,-1.055 0.21,-1.934 0.64,-2.519 0.44,-0.645 1.09,-0.95 1.94,-0.95 1.31,0.09 2.19,0.891 2.75,2.317 0.52,1.465 0.74,3.047 0.74,4.636 0,1.008 0.09,2.911 0.31,5.735 0.12,2.832 0.33,5.937 0.57,9.277 0.27,3.399 0.58,6.387 0.86,8.926 0.5,5.996 1.16,10.715 1.89,13.973 0.72,3.254 1.09,5.425 1.14,6.449 0,1.082 -0.21,1.875 -0.57,2.312 -0.43,0.5 -0.94,0.731 -1.59,0.731 -0.64,0 -1.46,-0.512 -2.3,-1.375 -0.97,-0.946 -2.05,-2.028 -3.35,-3.41 -1.88,-1.879 -4.33,-3.121 -7.39,-3.77 -2.98,-0.57 -6.75,-1.09 -11.33,-1.441 -1.86,-0.16 -4.98,-0.293 -9.47,-0.45 -4.49,-0.066 -9.64,-0.214 -15.36,-0.214 -5.72,-0.063 -11.46,-0.129 -17.02,-0.129 -5.6,-0.078 -10.37,-0.078 -14.36,-0.078 -4.05,0 -6.58,0 -7.67,0 -1.02,0 -1.68,0.355 -1.89,1.004 -0.22,0.664 -0.38,1.605 -0.3,2.906 v 100.426 c 0,1.316 0.16,2.316 0.44,2.972 0.3,0.66 0.87,0.938 1.75,0.938 0.93,0 3.26,0 6.8,-0.071 3.56,0 7.77,-0.07 12.63,-0.144 4.89,-0.063 9.83,-0.149 14.76,-0.207 5.01,-0.149 9.33,-0.219 13.2,-0.379 3.82,-0.137 6.43,-0.285 7.82,-0.504 6.87,-0.867 12.09,-1.738 15.81,-2.754 3.68,-0.937 6.29,-2.086 7.95,-3.461 1.68,-1.383 2.86,-3.051 3.63,-5.082 0.86,-2.258 1.45,-4.64 1.74,-7.18 0.29,-2.449 0.43,-4.418 0.43,-5.875 0,-1.503 0.21,-2.668 0.72,-3.546 0.46,-0.801 1.23,-1.223 2.33,-1.223 0.85,0.074 1.59,0.508 2.23,1.305 0.61,0.796 1.02,1.668 1.23,2.597 0.24,1.16 0.45,2.91 0.66,5.157 0.22,2.32 0.43,4.71 0.61,7.382 0.2,2.621 0.34,5.008 0.49,7.172 0.2,2.172 0.35,3.692 0.44,4.641 0.48,5.137 1.13,8.976 1.86,11.68 0.74,2.589 1.11,4.48 1.19,5.707 0,0.96 -0.16,1.753 -0.38,2.394 -0.29,0.734 -0.71,1.098 -1.37,1.098 -0.87,-0.078 -1.74,-0.321 -2.62,-0.739 -1.16,-0.55 -1.44,-0.703 -2.57,-0.918 -1.8,-0.347 -3.93,-0.742 -7.08,-1.175 -3.09,-0.43 -6.58,-0.809 -10.35,-1.082 -1.53,-0.071 -4.78,-0.157 -9.58,-0.157 -4.83,0 -10.63,-0.058 -17.38,-0.058 -6.73,0 -13.69,0.058 -20.93,0.058 -7.32,0 -14.14,0 -20.51,0.086 -6.38,0 -11.68,0 -15.8,0.071 -4.2,0 -6.52,0 -7.07,0 -0.66,0 -2.42,0.066 -5.4,0.136 -3.04,0.071 -6.65,0.137 -11.07,0.286 -4.42,0.16 -9.05,0.222 -13.92,0.289 -4.94,0.082 -9.55,0.144 -13.98,0.144 -2.18,0 -3.71,-0.211 -4.64,-0.719 -1.03,-0.433 -1.46,-1.234 -1.46,-2.308 0.07,-0.738 0.38,-1.383 1.03,-2.031 0.63,-0.661 1.28,-0.961 2.03,-1.036 1.22,0 2.61,0 4.27,-0.132 1.59,-0.079 3.25,-0.141 4.78,-0.293 1.6,-0.145 2.99,-0.282 3.98,-0.422 4.13,-0.582 7.33,-1.672 9.5,-3.274 2.18,-1.597 3.69,-3.836 4.49,-6.66 0.87,-2.832 1.45,-6.293 1.66,-10.508 0.16,-2.25 0.31,-4.707 0.45,-7.246 0.06,-2.597 0.2,-5.652 0.2,-9.261 0.08,-3.633 0.15,-8.196 0.15,-13.637 0.1,-5.438 0.1,-12.18 0.1,-20.211 0,-8.043 0,-17.754 0,-29.195 v -65.223 c 0,-11.965 0,-22.981 -0.1,-33.203 -0.07,-10.196 -0.29,-19.278 -0.56,-27.227 -0.3,-7.89 -0.82,-14.426 -1.54,-19.57 -0.51,-3.613 -1.08,-6.817 -1.71,-9.633 -0.6,-2.769 -1.54,-5.016 -2.77,-6.676 -1.24,-1.73 -3.13,-2.832 -5.52,-3.261 -1.8,-0.286 -3.76,-0.586 -5.86,-0.997 -2.12,-0.449 -4.05,-0.664 -5.88,-0.753 -1.08,-0.047 -1.89,-0.34 -2.32,-1.004 -0.5,-0.625 -0.71,-1.301 -0.71,-2.012 0,-1.113 0.51,-1.906 1.58,-2.324 1.02,-0.508 2.54,-0.723 4.49,-0.723 3.15,0 6.66,0.066 10.58,0.274 3.99,0.156 7.82,0.371 11.61,0.585 4.26,0.223 7.89,0.372 11.02,0.372 3.1,0.066 4.92,0.066 5.52,0.066 2.8,0 6.8,0 11.92,-0.066 5.16,-0.149 11.77,-0.372 19.8,-0.801 7.81,-0.215 17.29,-0.508 28.39,-0.793 11.1,-0.281 23.77,-0.516 38.13,-0.516 4.85,-0.058 8.69,0.078 11.53,0.352 2.82,0.293 4.9,1.093 6.36,2.461 1.45,1.386 2.6,3.652 3.4,6.757 0.59,2.04 1.16,4.922 1.75,8.477 0.58,3.621 1.16,7.402 1.66,11.289 0.57,3.945 0.94,7.324 1.3,10.301 0.36,2.961 0.5,4.844 0.5,5.578 0,1.367 -0.14,2.684 -0.5,3.836 -0.36,1.172 -1.03,1.75 -2.09,1.828" /><path
         id="path40"
         style="fill:#ffffff;fill-opacity:1;fill-rule:nonzero;stroke:none"
         d="m 3106.75,286.691 c -3.41,-13.203 -8.07,-24.425 -13.92,-33.632 -5.8,-9.219 -12.4,-16.817 -19.66,-22.754 -7.22,-5.86 -14.78,-10.508 -22.52,-13.77 -7.76,-3.262 -15.23,-5.586 -22.53,-6.887 -7.23,-1.23 -13.77,-1.882 -19.58,-1.804 -17.4,0.078 -33.4,3.34 -48.03,9.765 -14.65,6.465 -27.47,15.743 -38.33,27.911 -10.88,12.246 -19.29,26.882 -25.36,44.14 -6.03,17.227 -9.06,36.582 -9.12,58.184 0.06,20.144 2.84,37.668 8.19,52.734 5.41,15.082 13.03,27.617 22.81,37.621 9.85,10.082 21.45,17.535 34.85,22.602 13.34,5 28.1,7.457 44.14,7.457 12.17,0 23.83,-1.797 35.06,-5.508 11.31,-3.684 21.72,-9.199 31.3,-16.504 9.53,-7.32 17.97,-16.387 25.16,-27.246 7.18,-10.879 12.74,-23.48 16.73,-37.824 3.97,-14.348 6.02,-30.375 6.07,-48.117 -0.05,-17.754 -1.81,-33.262 -5.26,-46.368 z m 1.07,158.465 c -13.69,11.957 -29.65,21.145 -47.96,27.457 -18.34,6.301 -38.34,9.5 -60.01,9.559 -17.6,-0.059 -33.55,-2.238 -47.89,-6.524 -14.35,-4.339 -27.18,-10.207 -38.42,-17.675 -11.22,-7.465 -20.93,-16.016 -29.19,-25.637 -8.19,-9.656 -14.99,-19.805 -20.35,-30.586 -5.39,-10.797 -9.36,-21.59 -11.98,-32.531 -2.58,-10.864 -3.88,-21.375 -3.88,-31.395 0,-11.133 1.22,-22.441 3.81,-33.828 2.55,-11.445 6.39,-22.539 11.67,-33.41 5.22,-10.801 11.9,-20.926 20.02,-30.273 8.03,-9.434 17.66,-17.684 28.68,-24.793 11.09,-7.149 23.7,-12.754 37.91,-16.731 14.19,-4.07 29.98,-6.082 47.46,-6.16 18.47,0.078 35.56,2.684 51.37,7.754 15.72,5.137 29.94,12.305 42.45,21.601 12.61,9.2 23.28,20.106 32.19,32.743 8.84,12.531 15.64,26.378 20.35,41.367 4.72,15.011 7.09,30.793 7.09,47.414 -0.13,21.566 -3.96,40.922 -11.5,57.949 -7.64,17.098 -18.19,31.68 -31.82,43.699" /><path
         id="path42"
         style="fill:#ffffff;fill-opacity:1;fill-rule:nonzero;stroke:none"
         d="m 2808.39,264.387 c -1.25,0 -2.11,-0.383 -2.61,-1.192 -0.52,-0.781 -0.95,-2.09 -1.32,-4.062 -0.43,-2.383 -1.3,-5.488 -2.5,-9.258 -1.32,-3.762 -3.02,-7.57 -5.02,-11.445 -2.11,-3.907 -4.49,-7.325 -7.26,-10.157 -5.01,-4.992 -10.55,-8.769 -16.72,-11.289 -6.07,-2.48 -12.97,-4.152 -20.6,-5 -7.59,-0.8 -16.15,-1.171 -25.7,-1.113 -16.39,0.078 -31.61,2.481 -45.71,7.109 -14.08,4.727 -26.84,11.25 -38.13,19.657 -11.3,8.39 -20.95,18.176 -28.98,29.402 -8.05,11.223 -14.19,23.402 -18.57,36.586 -4.26,13.191 -6.36,26.895 -6.43,41.172 -0.08,12.465 0.79,24.422 2.61,35.871 1.89,11.371 5.28,22.176 10.28,32.316 4.99,10.211 12.11,19.625 21.43,28.325 4.44,4.289 10.23,8.402 17.41,12.242 7.16,3.91 16.37,7.113 27.55,9.586 11.16,2.453 24.84,3.742 41.15,3.836 11.37,0 21.87,-0.961 31.58,-2.762 9.72,-1.805 18.26,-4.277 25.65,-7.316 7.46,-3.11 13.41,-6.524 17.98,-10.368 3.33,-2.605 6.23,-5.945 8.61,-9.855 2.39,-3.914 4.28,-8.184 5.52,-12.902 1.3,-4.633 1.97,-9.344 1.97,-14.188 0,-2.617 0.12,-4.57 0.56,-5.887 0.36,-1.297 1.23,-1.945 2.46,-1.945 1.1,0 2.04,0.578 2.82,1.809 0.8,1.222 1.33,3.269 1.53,6.023 0.16,1.371 0.2,3.461 0.29,6.375 0.06,2.895 0.06,6.215 0.15,9.926 0.06,3.699 0.14,7.461 0.14,11.222 0.07,3.77 0.23,7.172 0.29,10.301 0.28,4.414 0.6,8.028 0.88,10.715 0.2,2.68 0.43,4.848 0.63,6.383 0.16,1.508 0.23,2.82 0.23,3.754 0.07,1.172 -0.3,2.031 -0.92,2.758 -0.67,0.793 -1.96,1.168 -3.86,1.168 -6.23,0.281 -12.55,0.941 -18.9,2.019 -6.39,1.09 -13.13,2.254 -20.21,3.633 -6.32,1.008 -12.77,1.812 -19.35,2.453 -6.6,0.66 -13.07,1.152 -19.27,1.453 -6.26,0.289 -11.89,0.43 -17.04,0.43 -19.51,-0.059 -36.52,-1.883 -51.18,-5.281 -14.62,-3.489 -27.31,-8.196 -37.96,-14.141 -10.65,-5.934 -19.79,-12.676 -27.4,-20.141 -8.4,-8.332 -15.42,-17.019 -20.99,-26.226 -5.6,-9.137 -10.01,-18.246 -13.22,-27.317 -3.23,-9.066 -5.48,-17.609 -6.89,-25.714 -1.25,-8.125 -1.92,-15.305 -1.92,-21.602 -0.15,-11.809 1.15,-24.133 3.75,-36.887 2.6,-12.742 7.33,-25.351 14.05,-37.824 6.83,-12.379 16.4,-24.059 28.71,-34.859 9.94,-8.684 21.02,-16.008 33.26,-21.875 12.24,-5.86 26.03,-10.215 41.31,-13.176 15.26,-2.988 32.46,-4.5 51.51,-4.5 8.4,0 16.89,0.301 25.44,0.801 8.62,0.496 16.74,1.386 24.35,2.597 7.61,1.231 14.07,2.813 19.35,4.864 2.18,0.789 3.76,1.66 4.92,2.461 1.08,0.8 2.03,1.812 2.68,3.046 0.67,1.309 1.29,3.125 1.95,5.352 0.82,2.605 1.62,5.742 2.48,9.512 0.86,3.75 1.67,7.754 2.47,11.875 0.77,4.14 1.51,8.105 2.08,11.797 0.66,3.789 1.17,6.972 1.53,9.511 0.36,2.52 0.57,4.121 0.57,4.688 0,1.375 -0.36,2.539 -1.09,3.633 -0.64,1.035 -1.43,1.523 -2.38,1.621" /><path
         id="path44"
         style="fill:#ffffff;fill-opacity:1;fill-rule:nonzero;stroke:none"
         d="m 3225.02,198.711 c 0.73,0 1.5,-0.008 2.26,-0.008 -0.93,0.008 -1.63,0.008 -2.08,0.008 -0.06,0 -0.12,0 -0.18,0" /><path
         id="path46"
         style="fill:#ffffff;fill-opacity:1;fill-rule:nonzero;stroke:none"
         d="m 3222.77,198.703 c 0.76,0 1.52,0.008 2.25,0.008 -0.05,0 -0.11,0 -0.17,0 -0.46,0 -1.16,0 -2.08,-0.008" /><path
         id="path48"
         style="fill:#ffffff;fill-opacity:1;fill-rule:nonzero;stroke:none"
         d="m 850.773,470.957 c 0.782,0.816 0.965,2.043 0.965,3.117 0,0.281 -0.047,0.551 -0.144,0.789 -0.078,0.188 -0.184,0.356 -0.309,0.512 -0.387,0.48 -1.015,0.855 -1.859,1.133 -1.496,0.484 -3.68,0.742 -6.598,0.758 v 0 0 c -1.265,-0.004 -2.582,-0.02 -3.93,-0.036 -2.382,-0.027 -4.882,-0.07 -7.531,-0.117 -3.543,-0.047 -7.109,-0.117 -10.687,-0.215 -1.102,-0.027 -2.2,-0.046 -3.309,-0.085 -4.703,-0.153 -8.992,-0.219 -12.992,-0.305 -1.984,-0.039 -3.777,-0.07 -5.379,-0.102 -1.602,-0.027 -3.012,-0.043 -4.242,-0.043 -0.305,0 -0.625,0 -0.953,0 -0.258,0.004 -0.528,0.004 -0.797,0.004 v 0 c -0.274,0 -0.535,0 -0.801,-0.004 -0.328,0 -0.648,0 -0.953,0 -1.223,0 -2.641,0.016 -4.242,0.043 -1.602,0.032 -3.395,0.063 -5.379,0.102 -4,0.086 -8.289,0.152 -12.996,0.305 -1.106,0.039 -2.199,0.058 -3.305,0.085 -3.578,0.098 -7.137,0.168 -10.687,0.215 -2.641,0.047 -5.141,0.09 -7.532,0.117 -1.34,0.016 -2.664,0.032 -3.929,0.036 v 0 0 c -2.918,-0.016 -5.098,-0.274 -6.59,-0.758 -0.852,-0.278 -1.477,-0.653 -1.867,-1.133 -0.125,-0.156 -0.231,-0.324 -0.301,-0.512 -0.106,-0.238 -0.153,-0.508 -0.153,-0.789 0,-0.031 0.004,-0.054 0.004,-0.086 0,-0.019 -0.004,-0.043 -0.004,-0.062 0,-0.781 0.125,-1.43 0.356,-1.981 0.031,-0.066 0.055,-0.129 0.09,-0.191 0.078,-0.176 0.183,-0.332 0.293,-0.484 0.07,-0.106 0.144,-0.219 0.226,-0.313 l 0.008,-0.004 c 0.012,-0.015 0.039,-0.031 0.051,-0.043 0.172,-0.183 0.351,-0.359 0.574,-0.488 0.09,-0.059 0.207,-0.098 0.305,-0.149 0.82,-0.414 1.922,-0.652 3.254,-0.734 0.234,-0.012 0.488,-0.016 0.738,-0.023 0.066,-0.004 0.125,-0.008 0.199,-0.008 0.024,0 0.043,0 0.074,0 0.039,0 0.079,-0.004 0.118,-0.004 0.843,0 1.679,-0.027 2.519,-0.051 0.551,-0.019 1.102,-0.039 1.649,-0.078 0.976,-0.055 1.945,-0.121 2.902,-0.242 2.394,-0.293 4.648,-0.735 6.82,-1.379 0.594,-0.176 1.16,-0.379 1.711,-0.59 0.102,-0.035 0.192,-0.074 0.285,-0.109 0.219,-0.082 0.43,-0.176 0.645,-0.266 0.226,-0.094 0.449,-0.191 0.664,-0.293 0.004,0 0.012,0 0.012,-0.008 0.203,-0.09 0.402,-0.179 0.597,-0.277 0.059,-0.027 0.11,-0.063 0.168,-0.094 0.961,-0.512 1.852,-1.062 2.629,-1.683 1.82,-1.465 3.254,-3.493 4.195,-6.098 1.008,-2.547 1.676,-5.871 1.954,-10.055 0.086,-2.254 0.164,-4.734 0.222,-7.261 0.028,-1.075 0.047,-2.266 0.067,-3.54 0.011,-1.097 0.031,-2.261 0.05,-3.492 0.008,-0.707 0.02,-1.425 0.04,-2.175 0,-3.551 0.058,-8.043 0.058,-13.403 V 304.797 c 0,-11.965 0,-23.047 -0.058,-33.32 -0.086,-10.313 -0.215,-19.438 -0.442,-27.414 -0.215,-8.028 -0.644,-14.551 -1.23,-19.696 -0.586,-5.371 -1.602,-9.512 -3.192,-12.328 -1.594,-2.809 -4.273,-4.684 -8.105,-5.496 -1.754,-0.438 -3.711,-0.801 -5.953,-1.023 -2.18,-0.215 -4.711,-0.293 -7.524,-0.293 -2.332,-0.063 -4,-0.508 -4.851,-1.289 -0.887,-0.801 -1.321,-1.68 -1.235,-2.618 0,-1.308 0.645,-2.238 1.871,-2.91 1.325,-0.644 3.125,-0.996 5.504,-0.996 3.93,0 8.196,0.066 13.051,0.215 4.773,0.137 9.566,0.293 14.422,0.43 4.777,0.136 9.195,0.281 13.176,0.437 3.988,0.149 7.113,0.215 9.343,0.215 3.567,0 8.625,-0.156 15.086,-0.371 6.457,-0.203 13.684,-0.36 21.731,-0.574 8.133,-0.196 16.453,-0.352 24.937,-0.352 2.246,0 3.996,0.352 5.289,0.996 1.368,0.672 2.016,1.602 2.094,2.91 0,0.938 -0.426,1.817 -1.461,2.618 -0.922,0.781 -2.453,1.226 -4.633,1.289 -1.949,0 -4.05,0.078 -6.445,0.156 -2.305,0.058 -4.629,0.215 -6.941,0.43 -2.325,0.203 -4.364,0.429 -6.168,0.73 -3.703,0.578 -6.594,1.602 -8.696,3.039 -2.027,1.445 -3.554,3.406 -4.492,5.781 -0.949,2.403 -1.656,5.235 -2.031,8.575 -0.582,5.292 -0.949,11.953 -1.227,19.976 -0.226,8.059 -0.355,17.25 -0.445,27.563 -0.066,10.273 -0.066,21.355 -0.066,33.32 v 93.769 c 0,7.891 0,14.477 0.066,19.844 0,5.36 0.09,9.852 0.149,13.403 0,2.046 0.046,3.925 0.101,5.66 0.016,0.468 0.035,0.918 0.047,1.367 0.012,0 0.02,0 0.031,0 0.028,0.754 0.055,1.492 0.078,2.168 0.051,0.922 0.102,1.828 0.157,2.726 0.007,0.344 0.015,0.68 0.023,1.012 0.039,1.465 0.078,2.77 0.109,3.34 0.321,6.484 1.485,11.246 3.555,14.348 1.008,1.511 2.371,2.73 4.109,3.683 0.059,0.031 0.11,0.067 0.168,0.094 0.196,0.098 0.399,0.187 0.598,0.277 0.008,0.008 0.008,0.008 0.012,0.008 0.215,0.102 0.445,0.199 0.668,0.293 0.211,0.09 0.422,0.184 0.644,0.266 0.09,0.035 0.18,0.074 0.278,0.109 0.554,0.211 1.121,0.414 1.715,0.59 2.179,0.644 4.425,1.086 6.82,1.379 0.957,0.121 1.93,0.187 2.906,0.242 0.547,0.039 1.094,0.059 1.645,0.078 0.839,0.024 1.675,0.051 2.519,0.051 0.043,0 0.078,0.004 0.125,0.004 0.024,0 0.047,0 0.067,0 0.074,0 0.132,0.004 0.199,0.008 0.25,0.007 0.504,0.011 0.738,0.023 1.34,0.082 2.434,0.32 3.254,0.734 0.344,0.176 0.605,0.348 0.879,0.637" /><path
         id="path50"
         style="fill:#ffffff;fill-opacity:1;fill-rule:nonzero;stroke:none"
         d="m 1147.43,437.184 c -0.52,3.121 -1.09,6.738 -1.88,10.796 -0.47,2.657 -0.98,5.262 -1.5,7.852 -0.27,1.371 -0.54,2.742 -0.83,4.102 -0.79,3.91 -1.43,7.25 -2.08,10.078 -0.59,2.754 -0.95,4.554 -1.18,5.215 -0.3,1.64 -0.66,2.957 -1.07,4.011 -0.19,0.481 -0.38,0.918 -0.58,1.282 -0.74,1.082 -1.6,1.652 -2.69,1.652 -1.45,-0.059 -3.33,-0.645 -5.79,-1.652 -2.47,-1.032 -6.02,-1.954 -10.72,-2.684 -5.75,-0.656 -11.96,-1.094 -18.63,-1.379 -6.67,-0.223 -13.26,-0.359 -19.63,-0.359 H 949.551 c -6.371,0 -12.957,0.136 -19.629,0.359 -6.668,0.285 -12.891,0.723 -18.633,1.379 -4.703,0.73 -8.258,1.652 -10.723,2.684 -2.449,1.007 -4.336,1.593 -5.781,1.652 -1.094,0 -1.957,-0.57 -2.695,-1.652 -0.199,-0.364 -0.391,-0.801 -0.574,-1.282 -0.411,-1.054 -0.782,-2.371 -1.082,-4.011 -0.223,-0.661 -0.579,-2.461 -1.176,-5.215 -0.649,-2.828 -1.289,-6.168 -2.086,-10.078 -0.277,-1.36 -0.551,-2.731 -0.824,-4.102 -0.52,-2.59 -1.024,-5.195 -1.5,-7.852 -0.793,-4.058 -1.368,-7.675 -1.879,-10.796 -0.508,-3.204 -0.801,-5.434 -0.801,-6.739 0,-1.957 0.215,-3.476 0.801,-4.504 0.511,-1.003 1.367,-1.593 2.679,-1.593 0.645,0 1.2,0.105 1.668,0.312 0.477,0.207 0.864,0.52 1.153,0.93 0.664,0.875 1.172,2.031 1.515,3.555 0.45,1.375 1.102,3.117 2.106,5.359 1.012,2.168 2.473,4.633 4.426,7.23 1.824,2.762 4.203,4.938 7.175,6.547 2.973,1.582 6.813,2.746 11.598,3.461 4.047,0.676 9.047,1.043 14.938,1.227 1.054,0.035 2.132,0.062 3.25,0.082 l 55.195,1.269 1.758,0.039 V 304.797 c 0,-11.387 0,-22.024 -0.078,-32.031 -0.067,-9.922 -0.215,-18.907 -0.43,-26.809 -0.219,-7.977 -0.652,-14.559 -1.234,-19.852 -0.579,-5.441 -1.598,-9.863 -3.196,-13.195 -1.59,-3.328 -4.269,-5.496 -8.109,-6.367 -1.524,-0.438 -3.465,-0.801 -5.723,-1.023 -2.324,-0.215 -4.937,-0.293 -7.754,-0.293 -2.32,-0.063 -3.988,-0.508 -4.859,-1.289 -0.871,-0.801 -1.301,-1.68 -1.223,-2.618 0,-1.308 0.653,-2.238 1.883,-2.91 0.957,-0.48 2.203,-0.801 3.762,-0.93 0.547,-0.046 1.121,-0.066 1.746,-0.066 3.91,0 8.176,0.066 13.039,0.215 4.781,0.137 9.559,0.293 14.414,0.43 4.867,0.136 9.202,0.281 13.182,0.437 3.38,0.129 6.12,0.195 8.25,0.207 0.36,0.008 0.72,0.008 1.05,0.008 h 0.09 c 0.34,0 0.69,0 1.06,-0.008 3.58,-0.019 8.27,-0.168 14.12,-0.363 6.46,-0.203 13.71,-0.36 21.74,-0.574 4.84,-0.118 9.77,-0.215 14.77,-0.286 3.31,-0.039 6.64,-0.066 10.02,-0.066 2.24,0 3.98,0.352 5.36,0.996 1.3,0.672 2.02,1.602 2.02,2.91 0,0.938 -0.43,1.817 -1.37,2.618 -1.03,0.781 -2.55,1.226 -4.72,1.289 -1.87,0 -4.06,0.078 -6.44,0.156 -2.33,0.058 -4.64,0.215 -6.96,0.43 -2.31,0.203 -4.34,0.429 -6.16,0.73 -3.69,0.578 -6.59,1.73 -8.55,3.41 -2.03,1.66 -3.47,3.828 -4.34,6.512 -0.87,2.609 -1.53,5.742 -1.89,9.211 -0.57,5.429 -1.01,12.09 -1.29,20.137 -0.37,7.976 -0.59,16.953 -0.73,26.953 -0.07,10.007 -0.16,20.644 -0.16,32.031 V 454.32 l 55.2,-1.269 c 1.12,-0.02 2.2,-0.047 3.26,-0.082 5.88,-0.184 10.88,-0.551 14.93,-1.227 4.78,-0.715 8.62,-1.879 11.59,-3.461 2.98,-1.609 5.36,-3.785 7.19,-6.547 1.95,-2.597 3.4,-5.062 4.42,-7.23 1.01,-2.242 1.65,-3.984 2.1,-5.359 0.35,-1.524 0.86,-2.68 1.52,-3.555 0.29,-0.41 0.68,-0.723 1.16,-0.93 0.46,-0.207 1.01,-0.312 1.66,-0.312 1.31,0 2.16,0.59 2.68,1.593 0.59,1.028 0.8,2.547 0.8,4.504 0,1.305 -0.3,3.535 -0.8,6.739" /><path
         id="path52"
         style="fill:#ffffff;fill-opacity:1;fill-rule:nonzero;stroke:none"
         d="m 1502.74,203.938 c -0.9,0.761 -2.39,1.199 -4.49,1.289 -0.05,0 -0.09,0 -0.13,0 h -0.04 c -1.94,0.007 -4.04,0.078 -6.42,0.156 -2.3,0.058 -4.63,0.215 -6.94,0.43 -1.54,0.136 -2.93,0.273 -4.23,0.449 -0.61,0.078 -1.2,0.152 -1.76,0.254 -0.06,0.019 -0.12,0.019 -0.18,0.027 -0.83,0.129 -1.61,0.285 -2.36,0.461 -0.1,0.019 -0.2,0.035 -0.31,0.066 -0.06,0.012 -0.13,0.032 -0.2,0.051 -2.35,0.594 -4.3,1.426 -5.83,2.461 -2.02,1.445 -3.55,3.406 -4.49,5.781 -0.95,2.403 -1.65,5.235 -2.03,8.575 -0.58,5.292 -0.95,11.953 -1.22,19.976 -0.23,8.059 -0.36,17.25 -0.44,27.563 -0.08,10.273 -0.08,21.355 -0.08,33.32 v 93.769 c 0,7.891 0,14.477 0.08,19.844 0,1.219 0,2.391 0.01,3.52 0.02,3.832 0.09,7.136 0.13,9.883 0,0.062 0,0.113 0,0.171 0,1.977 0.05,3.805 0.1,5.489 0.01,0.468 0.03,0.918 0.05,1.367 h 0.01 c 0.01,0 0.01,0 0.02,0 0.03,0.754 0.05,1.492 0.08,2.168 0.05,0.922 0.1,1.828 0.15,2.726 0.01,0.344 0.02,0.68 0.03,1.012 0,0.09 0.01,0.168 0.01,0.25 0.03,1.363 0.06,2.555 0.1,3.09 0.32,6.484 1.48,11.246 3.55,14.348 0.27,0.402 0.57,0.785 0.89,1.144 0.88,0.996 1.95,1.844 3.22,2.539 0.06,0.031 0.11,0.067 0.17,0.094 0.19,0.098 0.4,0.187 0.6,0.277 0,0.008 0,0.008 0.01,0.008 0.21,0.102 0.44,0.199 0.66,0.293 0.22,0.09 0.42,0.184 0.65,0.266 0.09,0.035 0.18,0.074 0.28,0.109 0.55,0.211 1.12,0.414 1.72,0.59 0.27,0.078 0.54,0.148 0.81,0.219 1.93,0.523 3.9,0.898 6,1.16 0.96,0.121 1.93,0.187 2.91,0.242 0.02,0.004 0.04,0.004 0.06,0.004 0.52,0.035 1.06,0.055 1.59,0.074 0.83,0.024 1.67,0.051 2.51,0.051 0.05,0 0.09,0.004 0.13,0.004 2.08,0 4.89,0.23 5.8,2.437 0.23,0.551 0.36,1.2 0.36,1.981 0,0.019 0,0.043 0,0.062 0,0.032 0,0.055 0,0.086 0,0.281 -0.05,0.551 -0.15,0.789 -0.08,0.188 -0.18,0.356 -0.31,0.512 -0.18,0.23 -0.42,0.43 -0.7,0.613 -0.33,0.2 -0.71,0.375 -1.16,0.52 -1.49,0.484 -3.67,0.742 -6.59,0.758 v 0 0 c -1.27,-0.004 -2.59,-0.02 -3.93,-0.036 -2.39,-0.027 -4.89,-0.07 -7.53,-0.117 -3.55,-0.047 -7.11,-0.117 -10.69,-0.215 -1.1,-0.027 -2.19,-0.046 -3.31,-0.085 -4.71,-0.153 -8.99,-0.219 -12.99,-0.305 -1.99,-0.039 -3.78,-0.07 -5.38,-0.102 -1.6,-0.027 -3.01,-0.043 -4.25,-0.043 -0.3,0 -0.62,0 -0.94,0 -0.27,0.004 -0.53,0.004 -0.8,0.004 v 0 c -0.28,0 -0.54,0 -0.8,-0.004 -0.33,0 -0.65,0 -0.95,0 -1.23,0 -2.65,0.016 -4.25,0.043 -1.6,0.032 -3.39,0.063 -5.38,0.102 -4,0.086 -8.28,0.152 -12.99,0.305 -1.11,0.039 -2.21,0.058 -3.31,0.085 -3.58,0.098 -7.14,0.168 -10.69,0.215 -2.64,0.047 -5.14,0.09 -7.52,0.117 -1.35,0.016 -2.67,0.032 -3.94,0.036 v 0 0 c -1.83,-0.008 -3.39,-0.118 -4.65,-0.313 -0.74,-0.117 -1.39,-0.262 -1.94,-0.445 -0.85,-0.278 -1.47,-0.653 -1.86,-1.133 -0.13,-0.156 -0.23,-0.324 -0.31,-0.512 -0.66,-1.601 0.27,-3.828 1.76,-4.59 0.82,-0.414 1.91,-0.652 3.25,-0.734 0.24,-0.012 0.49,-0.016 0.73,-0.023 0.07,-0.004 0.14,-0.008 0.21,-0.008 0.02,0 0.04,0 0.07,0 0.04,0 0.08,-0.004 0.12,-0.004 0.84,0 1.68,-0.027 2.52,-0.051 0.55,-0.019 1.1,-0.039 1.65,-0.078 0.97,-0.055 1.94,-0.121 2.9,-0.242 2.4,-0.293 4.64,-0.735 6.82,-1.379 0.6,-0.176 1.16,-0.379 1.72,-0.59 0.09,-0.035 0.18,-0.074 0.27,-0.109 0.23,-0.082 0.43,-0.176 0.65,-0.266 0.22,-0.094 0.45,-0.191 0.66,-0.293 0.01,0 0.01,0 0.01,-0.008 0.21,-0.09 0.41,-0.179 0.6,-0.277 0.06,-0.027 0.12,-0.063 0.17,-0.094 0.96,-0.512 1.85,-1.062 2.64,-1.683 1.81,-1.465 3.24,-3.493 4.19,-6.098 1,-2.547 1.67,-5.871 1.95,-10.055 0.08,-2.254 0.16,-4.734 0.22,-7.261 0.03,-1.075 0.05,-2.266 0.07,-3.54 0.01,-1.097 0.03,-2.261 0.05,-3.492 0.01,-0.707 0.02,-1.425 0.03,-2.175 0,-3.551 0.06,-8.043 0.06,-13.403 v -59.293 c 0,-1.074 -0.28,-1.719 -0.71,-2.086 -0.52,-0.355 -0.95,-0.508 -1.45,-0.508 h -144.34 c -0.65,0 -1.31,0.153 -1.82,0.508 -0.22,0.16 -0.38,0.387 -0.51,0.66 -0.17,0.368 -0.27,0.829 -0.27,1.45 v 42.539 c 0,9.191 0.07,16.73 0.07,22.601 0.05,5.789 0.14,10.5 0.28,14.199 0.14,3.688 0.29,6.965 0.5,9.801 0.29,6.426 1.53,11.137 3.56,14.262 1.83,2.672 4.79,4.445 8.97,5.371 1.99,0.555 4.04,0.949 6.22,1.219 0.64,0.078 1.29,0.137 1.93,0.18 0.33,0.023 0.65,0.046 0.97,0.062 0.55,0.039 1.1,0.059 1.65,0.078 0.84,0.024 1.68,0.051 2.52,0.051 0.04,0 0.08,0.004 0.12,0.004 0.02,0 0.05,0 0.07,0 0.07,0 0.13,0.004 0.2,0.008 0.25,0.007 0.5,0.011 0.73,0.023 1.85,0.109 4.02,0.516 4.81,2.406 0.22,0.551 0.36,1.2 0.36,1.981 0,0.019 -0.01,0.043 -0.01,0.062 0,0.028 0,0.047 0,0.067 0,0 0.01,0.011 0.01,0.019 0,0.281 -0.06,0.551 -0.16,0.789 -0.07,0.188 -0.17,0.356 -0.3,0.512 -0.39,0.48 -1.01,0.855 -1.86,1.133 -1.5,0.484 -3.68,0.742 -6.6,0.758 v 0 0 c -1.27,-0.004 -2.58,-0.02 -3.93,-0.036 -2.38,-0.027 -4.88,-0.07 -7.53,-0.117 -3.55,-0.047 -7.1,-0.117 -10.68,-0.215 -1.11,-0.027 -2.2,-0.046 -3.31,-0.085 -4.71,-0.153 -8.99,-0.219 -12.99,-0.305 -1.99,-0.039 -3.78,-0.07 -5.38,-0.102 -1.61,-0.027 -3.02,-0.043 -4.25,-0.043 -0.3,0 -0.62,0 -0.95,0 -0.26,0.004 -0.53,0.004 -0.8,0.004 v 0 c -0.27,0 -0.54,0 -0.8,-0.004 -0.32,0 -0.64,0 -0.95,0 -1.23,0 -2.64,0.016 -4.25,0.043 -1.6,0.032 -3.38,0.063 -5.37,0.102 -4.01,0.086 -8.29,0.152 -12.99,0.305 -1.12,0.039 -2.21,0.058 -3.32,0.085 -3.57,0.098 -7.13,0.168 -10.68,0.215 -2.65,0.047 -5.15,0.09 -7.53,0.117 -1.35,0.016 -2.66,0.032 -3.93,0.036 v 0 0 c -1.85,-0.008 -3.4,-0.118 -4.68,-0.317 -0.73,-0.117 -1.37,-0.265 -1.92,-0.441 -0.84,-0.278 -1.47,-0.653 -1.86,-1.133 -0.13,-0.156 -0.23,-0.324 -0.3,-0.512 -0.1,-0.238 -0.15,-0.508 -0.15,-0.789 0,-0.031 0,-0.054 0,-0.086 0,-0.019 0,-0.043 0,-0.062 0,-0.781 0.13,-1.43 0.36,-1.981 0.31,-0.754 0.82,-1.304 1.54,-1.672 0.82,-0.414 1.92,-0.652 3.26,-0.734 0.23,-0.012 0.48,-0.016 0.73,-0.023 0.07,-0.004 0.13,-0.008 0.2,-0.008 0.02,0 0.05,0 0.07,0 0.04,0 0.08,-0.004 0.12,-0.004 0.85,0 1.68,-0.027 2.52,-0.051 0.56,-0.019 1.1,-0.039 1.65,-0.078 0.98,-0.055 1.95,-0.121 2.9,-0.242 2.4,-0.293 4.65,-0.735 6.82,-1.379 0.6,-0.176 1.17,-0.379 1.72,-0.59 0.09,-0.035 0.19,-0.074 0.28,-0.109 0.22,-0.082 0.43,-0.176 0.64,-0.266 0.23,-0.094 0.45,-0.191 0.67,-0.293 0.01,0 0.01,0 0.01,-0.008 0.2,-0.09 0.41,-0.179 0.6,-0.277 0.06,-0.027 0.11,-0.063 0.17,-0.094 0.95,-0.512 1.84,-1.062 2.63,-1.683 1.81,-1.465 3.25,-3.493 4.19,-6.098 1,-2.547 1.67,-5.871 1.96,-10.055 0.08,-2.254 0.15,-4.734 0.21,-7.261 0.04,-1.075 0.05,-2.266 0.07,-3.54 0.01,-1.097 0.03,-2.261 0.05,-3.492 0.01,-0.707 0.02,-1.425 0.04,-2.175 0,-3.551 0.06,-8.043 0.06,-13.403 V 304.797 c 0,-11.965 0,-23.047 -0.06,-33.32 -0.08,-10.313 -0.22,-19.438 -0.44,-27.414 -0.22,-8.028 -0.64,-14.551 -1.23,-19.696 -0.59,-5.371 -1.6,-9.512 -3.19,-12.328 -1.6,-2.809 -4.27,-4.684 -8.11,-5.496 -1.75,-0.438 -3.71,-0.801 -5.95,-1.023 -2.18,-0.215 -4.71,-0.293 -7.53,-0.293 -2.32,-0.063 -3.99,-0.508 -4.84,-1.289 -0.89,-0.801 -1.32,-1.68 -1.24,-2.618 0,-1.308 0.65,-2.238 1.87,-2.91 1.32,-0.644 3.11,-0.996 5.48,-0.996 0.01,0 0.02,0 0.03,0 3.92,0 8.19,0.066 13.05,0.215 4.77,0.137 9.56,0.293 14.42,0.43 4.77,0.136 9.2,0.281 13.18,0.437 3.6,0.137 6.5,0.207 8.68,0.215 0.22,0 0.45,0 0.66,0 3.57,0 8.62,-0.156 15.08,-0.371 6.46,-0.203 13.69,-0.36 21.74,-0.574 1.68,-0.039 3.38,-0.078 5.09,-0.118 0.66,-0.019 1.33,-0.031 2.01,-0.039 2.15,-0.039 4.31,-0.078 6.48,-0.109 3.26,-0.047 6.53,-0.078 9.81,-0.086 0.27,0 0.54,0 0.82,0 0.02,0 0.05,0 0.07,0 0.22,0 0.43,0 0.65,0 2.25,0 3.99,0.352 5.29,0.996 1.37,0.672 2.02,1.602 2.1,2.91 0,0.938 -0.43,1.817 -1.47,2.618 -0.92,0.781 -2.45,1.226 -4.63,1.289 -1.94,0 -4.05,0.078 -6.45,0.156 -2.3,0.058 -4.63,0.215 -6.94,0.43 -2.32,0.203 -4.36,0.429 -6.16,0.73 -2.02,0.312 -3.79,0.762 -5.32,1.34 -1.29,0.476 -2.43,1.043 -3.38,1.699 -2.02,1.445 -3.55,3.406 -4.5,5.781 -0.94,2.403 -1.65,5.235 -2.03,8.575 -0.57,5.292 -0.94,11.953 -1.22,19.976 -0.08,2.621 -0.13,5.375 -0.19,8.227 -0.21,6.113 -0.35,12.781 -0.47,19.98 -0.05,9.852 -0.12,20.508 -0.12,31.805 v 28.254 c 0,0.508 0.1,0.898 0.27,1.191 0.13,0.234 0.29,0.418 0.51,0.543 0.51,0.297 1.17,0.434 1.82,0.434 h 144.34 c 0.5,0 0.93,-0.215 1.45,-0.567 0.43,-0.363 0.71,-0.937 0.71,-1.582 v -27.402 c 0,-7.422 0,-14.512 -0.01,-21.289 -0.01,-4.121 -0.02,-8.145 -0.05,-12.031 0,-0.313 0,-0.625 0,-0.93 -0.04,-4.891 -0.09,-9.512 -0.16,-13.856 -0.07,-4.492 -0.16,-8.691 -0.27,-12.628 -0.22,-8.028 -0.64,-14.551 -1.24,-19.696 -0.58,-5.371 -1.6,-9.512 -3.19,-12.328 -1.59,-2.809 -4.27,-4.684 -8.1,-5.496 -0.55,-0.137 -1.13,-0.262 -1.71,-0.379 -1.3,-0.266 -2.7,-0.488 -4.25,-0.644 -0.02,0 -0.04,0 -0.07,0 -2.16,-0.215 -4.67,-0.293 -7.45,-0.293 -2.33,-0.063 -4,-0.508 -4.85,-1.289 -0.89,-0.801 -1.32,-1.68 -1.23,-2.618 0,-1.308 0.65,-2.238 1.87,-2.91 0.4,-0.195 0.85,-0.351 1.35,-0.488 1.13,-0.332 2.49,-0.508 4.15,-0.508 0.13,0 0.26,0 0.39,0 3.83,0 7.96,0.078 12.67,0.215 4.77,0.137 9.56,0.293 14.41,0.43 4.78,0.136 9.2,0.281 13.18,0.437 3.99,0.149 7.11,0.215 9.35,0.215 0.11,0 0.24,0 0.36,0 3.54,-0.008 8.47,-0.164 14.72,-0.371 6.46,-0.203 13.68,-0.36 21.73,-0.574 1.84,-0.051 3.7,-0.09 5.56,-0.129 6.22,-0.125 12.55,-0.223 18.98,-0.223 0.13,0 0.27,0 0.4,0 2.24,0 3.99,0.352 5.29,0.996 0.26,0.137 0.49,0.274 0.7,0.43 0.89,0.625 1.33,1.426 1.39,2.48 0,0.938 -0.42,1.817 -1.46,2.618 -0.9,0.761 1.04,-0.801 0,0 -0.9,0.761 1.04,-0.801 0,0 -0.9,0.761 1.04,-0.801 0,0 -0.9,0.761 1.04,-0.801 0,0" /><path
         id="path54"
         style="fill:#ffffff;fill-opacity:1;fill-rule:nonzero;stroke:none"
         d="m 2397.04,226.809 c -0.02,0.039 -0.04,0.078 -0.07,0.117 0.04,-0.059 0.07,-0.117 0.11,-0.168 v 0 c -0.02,0.019 -0.03,0.039 -0.04,0.051 z m -90.97,84.668 c -0.22,-0.372 -0.79,-0.586 -1.66,-0.586 h -73.91 c -0.67,0 -1.16,0.214 -1.46,0.644 -0.28,0.449 -0.28,1.094 0.16,1.934 l 36.96,93.496 c 0,0 0.84,2.031 1.16,2.687 0.12,0.25 0.22,0.45 0.35,0.594 0.13,0.149 0.3,0.234 0.52,0.223 0.12,-0.004 0.33,-0.035 0.48,-0.184 0.22,-0.211 0.3,-0.449 0.37,-0.633 0.27,-0.672 1.03,-2.687 1.03,-2.687 l 36.07,-93.926 c 0.24,-0.625 0.24,-1.152 -0.07,-1.562 z M 2439.11,202.18 c -0.02,0.105 -0.05,0.203 -0.08,0.312 -0.01,0.039 -0.02,0.078 -0.04,0.117 -0.01,0.028 -0.02,0.055 -0.03,0.098 -0.01,0.078 -0.03,0.145 -0.06,0.215 -0.04,0.098 -0.08,0.176 -0.13,0.273 h -0.01 v 0 c -0.16,0.321 -0.33,0.625 -0.58,0.879 -0.72,0.723 -1.8,1.153 -3.32,1.153 -1.8,0 -3.71,0.066 -5.66,0.175 -1.01,0.047 -1.71,0.067 -2.61,0.098 -1.1,0.039 -2.09,0.086 -3.05,0.156 -5.76,0.449 -10.41,2.715 -14.19,5.457 -3.76,2.766 -7.03,6.426 -9.71,11.008 -0.86,1.445 -1.72,2.996 -2.56,4.629 0,0 0,0 0,0.008 -1.79,3.449 -3.54,7.285 -5.26,11.504 l -99.99,232.597 c -1.57,3.887 -3.05,6.965 -4.42,9.235 -0.07,0.113 -3.43,5.465 -7.62,5.465 h -0.39 -0.38 c -3.45,0 -6.33,-3.641 -7.29,-4.981 -1.46,-2.316 -3.04,-5.539 -4.72,-9.719 l -99.99,-232.597 c -1.73,-4.227 -3.48,-8.074 -5.28,-11.532 -0.38,-0.753 -0.77,-1.484 -1.16,-2.191 -0.01,0 -0.01,-0.008 -0.01,-0.008 -0.04,-0.086 -0.09,-0.164 -0.14,-0.242 v -0.012 c -0.41,-0.73 -0.82,-1.453 -1.24,-2.156 -2.68,-4.582 -5.94,-8.242 -9.7,-11.008 -3.79,-2.742 -8.43,-5.144 -14.2,-5.457 -3.15,-0.156 -3.64,-0.215 -5.64,-0.312 -1.96,-0.09 -3.87,-0.117 -5.68,-0.117 -1.5,0 -2.6,-0.43 -3.32,-1.153 -0.12,-0.136 -0.22,-0.285 -0.33,-0.429 -0.08,-0.137 -0.15,-0.274 -0.22,-0.411 -0.01,-0.019 -0.02,-0.019 -0.03,-0.039 -0.05,-0.09 -0.1,-0.175 -0.13,-0.273 -0.06,-0.137 -0.1,-0.274 -0.14,-0.41 -0.01,-0.098 -0.04,-0.188 -0.06,-0.285 -0.01,-0.008 -0.01,-0.028 -0.02,-0.047 0,-0.039 0,-0.078 -0.01,-0.117 -0.04,-0.235 -0.07,-0.489 -0.07,-0.743 0,-1.523 0.56,-2.531 1.65,-3.125 1.18,-0.566 2.9,-0.781 5.3,-0.781 1.93,0 3.82,0.02 5.71,0.039 0.01,0 0.02,0 0.02,0 0.05,0 0.09,0 0.13,0 2.14,0.027 4.25,0.067 6.34,0.117 0.4,0 0.81,0.02 1.21,0.02 0.92,0.027 1.83,0.047 2.72,0.074 1.13,0.031 2.25,0.063 3.36,0.102 6.3,0.214 11.6,0.371 16.09,0.574 4.42,0.215 7.39,0.371 8.77,0.371 4.12,0 8.69,-0.156 13.68,-0.371 3.39,-0.137 6.82,-0.262 10.26,-0.391 0.03,-0.008 0.07,-0.008 0.1,-0.008 1.55,-0.058 3.09,-0.117 4.65,-0.175 5,-0.196 9.63,-0.352 13.91,-0.352 1.95,0 3.48,0.215 4.49,0.781 0.5,0.274 0.87,0.645 1.12,1.102 0,0.012 0.01,0.012 0.01,0.012 0.01,0.007 0.01,0.027 0.02,0.039 0.05,0.097 0.1,0.191 0.15,0.3 0.06,0.188 0.14,0.364 0.18,0.559 0.08,0.332 0.13,0.703 0.13,1.113 0.05,1.094 -0.31,2.032 -1.03,2.754 -0.81,0.723 -2.31,1.153 -4.63,1.153 h -5.65 c -5.82,0 -9.78,0.945 -12.03,2.753 -2.26,1.836 -3.25,4.415 -3.18,7.684 0,2.238 0.42,5.441 1.36,9.5 0.87,4.066 2.32,8.461 4.27,13.098 l 20.44,49.562 c 0.36,1.114 0.8,1.739 1.25,2.129 0.42,0.352 1.21,0.488 2.23,0.488 h 90 c 0.87,0 1.68,-0.136 2.33,-0.488 0.63,-0.39 1.15,-1.015 1.58,-2.129 l 29.56,-74.316 c 0.8,-2.266 0.74,-4.063 -0.06,-5.586 -0.82,-1.406 -1.88,-2.246 -3.13,-2.598 h -0.01 l -2.26,-0.469 c -1.13,-0.246 -2.23,-1.074 -2.66,-2.304 -0.11,-0.391 -0.17,-0.793 -0.15,-1.231 0,-0.82 0.17,-1.484 0.48,-2.011 0.25,-0.469 0.62,-0.84 1.13,-1.114 1,-0.566 3.87,-0.781 5.82,-0.781 4.28,0 8.91,0.156 13.91,0.352 1.42,0.058 2.83,0.105 4.24,0.164 h 0.02 c 3.61,0.136 7.19,0.265 10.74,0.41 5,0.215 9.57,0.371 13.69,0.371 1.39,0 4.35,-0.156 8.77,-0.371 4.49,-0.203 9.78,-0.36 16.09,-0.574 4.44,-0.137 9.03,-0.254 13.74,-0.313 h 0.01 c 1.9,-0.019 3.81,-0.039 5.74,-0.039 2.39,0 4.13,0.215 5.3,0.781 0.86,0.469 1.38,1.211 1.56,2.254 0.04,0.227 0.07,0.461 0.08,0.723 0,0.051 0.01,0.09 0,0.148 0,0.301 -0.02,0.586 -0.08,0.86 -0.02,0.105 0.06,-0.274 0,0" /><path
         id="path56"
         style="fill:#ffffff;fill-opacity:1;fill-rule:nonzero;stroke:none"
         d="m 3362.44,247.773 c -0.43,0.95 -1.09,1.368 -1.95,1.368 -1.1,-0.067 -1.96,-0.508 -2.61,-1.465 -0.64,-0.86 -1.07,-2.02 -1.31,-3.309 -0.64,-3.769 -1.74,-7.461 -3.25,-11.086 -1.53,-3.64 -3.49,-6.883 -5.87,-9.785 -3.05,-3.562 -6.93,-6.16 -11.58,-7.754 -4.64,-1.59 -9.86,-2.605 -15.66,-3.054 -5.88,-0.43 -12.17,-0.567 -18.85,-0.489 -9.94,0 -18.34,0.274 -25.14,0.86 -6.82,0.644 -12.32,1.601 -16.52,2.91 -4.12,1.23 -7.25,2.89 -9.2,4.91 -2.33,2.109 -4,6.172 -5.13,12.316 -1.11,6.153 -1.82,15.008 -2.21,26.524 -0.33,11.465 -0.47,26.16 -0.47,44.207 v 115.5 c 0.04,5.441 0.04,10.004 0.04,13.637 0.1,3.609 0.1,6.664 0.16,9.261 0.07,2.539 0.15,4.996 0.21,7.246 0.17,3.34 0.56,6.207 1.09,8.649 0.16,0.73 0.33,1.429 0.52,2.086 0.79,2.832 2.23,5.066 4.21,6.668 1.95,1.582 4.84,2.738 8.55,3.461 2.23,0.214 4.55,0.425 6.94,0.582 2.39,0.218 4.28,0.293 5.67,0.293 0.7,0.074 1.36,0.304 2.02,0.8 0.65,0.579 0.94,1.157 1.01,1.817 0,1.074 -0.5,1.875 -1.58,2.308 -1.01,0.496 -2.49,0.704 -4.36,0.719 -1.67,-0.008 -3.35,-0.019 -5.07,-0.039 -2.37,-0.023 -4.81,-0.062 -7.28,-0.105 -4.77,-0.067 -9.34,-0.125 -13.6,-0.286 -4.29,-0.152 -7.91,-0.218 -10.73,-0.289 -0.07,-0.004 -0.13,-0.004 -0.2,-0.004 -2.77,-0.074 -4.53,-0.132 -5.09,-0.132 -0.04,0 -0.1,0 -0.15,0 -0.69,0.011 -2.52,0.07 -5.49,0.136 -0.06,0 -0.14,0 -0.19,0.008 -3.22,0.067 -7.07,0.129 -11.49,0.281 -4.59,0.161 -9.06,0.219 -13.53,0.286 -2.21,0.043 -4.22,0.078 -6.08,0.101 -1.93,0.028 -3.68,0.047 -5.24,0.047 -0.06,0 -0.12,-0.004 -0.19,-0.008 -1.85,-0.011 -3.32,-0.226 -4.32,-0.715 -1.09,-0.429 -1.58,-1.234 -1.58,-2.308 0.06,-0.66 0.35,-1.238 1.01,-1.817 0.66,-0.496 1.32,-0.726 2.02,-0.8 1.39,0 3.28,-0.075 5.67,-0.293 2.39,-0.157 4.71,-0.368 6.94,-0.575 3.71,-0.73 6.6,-1.886 8.55,-3.468 1.98,-1.598 3.41,-3.836 4.21,-6.668 0.19,-0.66 0.35,-1.364 0.52,-2.102 0.59,-2.449 0.99,-5.308 1.15,-8.633 0.15,-2.25 0.32,-4.707 0.44,-7.246 0.07,-2.597 0.23,-5.652 0.23,-9.261 0.07,-3.633 0.13,-8.196 0.13,-13.637 0.09,-5.438 0.09,-12.18 0.09,-20.211 v -94.418 c 0,-11.965 0,-22.981 -0.09,-33.203 -0.06,-10.196 -0.29,-19.278 -0.56,-27.227 -0.31,-7.89 -0.81,-14.426 -1.55,-19.57 -0.5,-3.613 -1.07,-6.817 -1.7,-9.484 -0.6,-2.762 -1.54,-4.93 -2.78,-6.68 -1.23,-1.66 -3.12,-2.82 -5.51,-3.406 -1.79,-0.43 -3.76,-0.86 -5.86,-1.231 -2.09,-0.293 -4.04,-0.519 -5.88,-0.519 -1.09,-0.047 -1.86,-0.34 -2.32,-1.004 -0.5,-0.625 -0.72,-1.301 -0.72,-2.012 0,-1.113 0.52,-1.906 1.61,-2.324 0.23,-0.117 0.5,-0.215 0.79,-0.293 0.95,-0.293 2.18,-0.43 3.67,-0.43 3.14,0 6.61,0.066 10.46,0.274 3.82,0.156 7.74,0.371 11.74,0.585 3.76,0.223 7.1,0.372 9.92,0.372 1.48,0.039 2.69,0.058 3.65,0.058 0.92,0.008 1.62,0.008 2.08,0.008 0.06,0 0.12,0 0.17,0 0.06,0 0.12,0 0.18,0 0.45,0 1.15,0 2.08,-0.008 4.94,-0.019 10.33,-0.09 16.13,-0.293 6.8,-0.137 14.57,-0.351 23.18,-0.566 0.04,0 0.09,0 0.13,0 8.8,-0.43 18.68,-0.723 29.5,-0.957 10.96,-0.215 23.26,-0.352 36.88,-0.352 5.07,0 9.05,0.078 12.04,0.352 3.03,0.242 5.28,0.742 6.79,1.386 1.6,0.723 2.77,1.739 3.49,3.047 0.73,1.317 1.46,3.047 2.02,5.223 0.82,2.805 1.52,6.066 2.18,9.777 0.64,3.75 1.31,7.547 1.83,11.309 0.49,3.769 0.93,7.09 1.23,10.008 0.27,2.804 0.43,4.765 0.43,5.84 0,1.972 -0.23,3.429 -0.67,4.296 -0.43,0.95 0.44,-0.867 0,0" /><path
         id="path58"
         style="fill:#ffffff;fill-opacity:1;fill-rule:nonzero;stroke:none"
         d="m 3589.11,247.773 c -0.43,0.95 -1.09,1.368 -1.95,1.368 -1.1,-0.067 -1.96,-0.508 -2.6,-1.465 -0.65,-0.86 -1.08,-2.02 -1.31,-3.309 -0.66,-3.769 -1.74,-7.461 -3.26,-11.086 -1.53,-3.64 -3.49,-6.883 -5.87,-9.785 -3.05,-3.562 -6.93,-6.16 -11.58,-7.754 -4.64,-1.59 -9.86,-2.605 -15.66,-3.054 -5.88,-0.43 -12.16,-0.567 -18.85,-0.489 -9.93,0 -18.34,0.274 -25.14,0.86 -6.81,0.644 -12.31,1.601 -16.53,2.91 -4.1,1.23 -7.24,2.89 -9.18,4.91 -2.33,2.109 -4.01,6.172 -5.14,12.316 -1.11,6.153 -1.82,15.008 -2.21,26.524 -0.33,11.465 -0.47,26.16 -0.47,44.207 v 115.5 c 0.04,5.441 0.04,10.004 0.04,13.637 0.1,3.609 0.1,6.664 0.16,9.261 0.07,2.539 0.16,4.996 0.22,7.246 0.16,3.34 0.55,6.207 1.09,8.649 0.16,0.73 0.32,1.429 0.51,2.086 0.8,2.832 2.23,5.066 4.21,6.668 1.94,1.582 4.83,2.738 8.55,3.461 2.22,0.214 4.55,0.425 6.94,0.582 2.39,0.218 4.28,0.293 5.67,0.293 0.7,0.074 1.36,0.304 2.02,0.8 0.64,0.579 0.94,1.157 1.01,1.817 0,1.074 -0.5,1.875 -1.58,2.308 -1.01,0.496 -2.49,0.704 -4.36,0.719 -1.66,-0.008 -3.34,-0.019 -5.06,-0.039 -2.38,-0.023 -4.81,-0.062 -7.3,-0.105 -4.76,-0.067 -9.32,-0.125 -13.58,-0.286 -4.3,-0.152 -7.91,-0.218 -10.74,-0.289 -0.06,-0.004 -0.13,-0.004 -0.2,-0.004 -2.77,-0.074 -4.53,-0.132 -5.09,-0.132 -0.04,0 -0.1,0 -0.15,0 -0.69,0.011 -2.51,0.07 -5.49,0.136 -0.06,0 -0.13,0 -0.19,0.008 -3.22,0.067 -7.07,0.129 -11.49,0.281 -4.59,0.161 -9.05,0.219 -13.53,0.286 -2.2,0.043 -4.22,0.078 -6.07,0.101 -1.94,0.028 -3.69,0.047 -5.25,0.047 -0.06,0 -0.12,-0.004 -0.18,-0.008 -1.86,-0.011 -3.33,-0.226 -4.33,-0.715 -1.08,-0.429 -1.58,-1.234 -1.58,-2.308 0.07,-0.66 0.36,-1.238 1.01,-1.817 0.66,-0.496 1.32,-0.726 2.02,-0.8 1.39,0 3.28,-0.075 5.66,-0.293 2.4,-0.157 4.72,-0.368 6.95,-0.575 3.71,-0.73 6.6,-1.886 8.55,-3.468 1.98,-1.598 3.41,-3.836 4.21,-6.668 0.19,-0.66 0.36,-1.364 0.52,-2.102 0.59,-2.449 1,-5.308 1.15,-8.633 0.16,-2.25 0.32,-4.707 0.45,-7.246 0.06,-2.597 0.22,-5.652 0.22,-9.261 0.06,-3.633 0.13,-8.196 0.13,-13.637 0.09,-5.438 0.09,-12.18 0.09,-20.211 v -94.418 c 0,-11.965 0,-22.981 -0.09,-33.203 -0.07,-10.196 -0.29,-19.278 -0.56,-27.227 -0.31,-7.89 -0.82,-14.426 -1.55,-19.57 -0.5,-3.613 -1.07,-6.817 -1.71,-9.484 -0.59,-2.762 -1.53,-4.93 -2.76,-6.68 -1.23,-1.66 -3.13,-2.82 -5.51,-3.406 -1.79,-0.43 -3.77,-0.86 -5.87,-1.231 -2.09,-0.293 -4.04,-0.519 -5.87,-0.519 -1.09,-0.047 -1.87,-0.34 -2.32,-1.004 -0.51,-0.625 -0.72,-1.301 -0.72,-2.012 0,-1.113 0.51,-1.906 1.6,-2.324 0.23,-0.117 0.5,-0.215 0.79,-0.293 0.95,-0.293 2.18,-0.43 3.68,-0.43 3.13,0 6.6,0.066 10.45,0.274 3.82,0.156 7.74,0.371 11.74,0.585 3.77,0.223 7.11,0.372 9.92,0.372 1.49,0.039 2.7,0.058 3.65,0.058 0.92,0.008 1.63,0.008 2.08,0.008 0.06,0 0.12,0 0.17,0 0.06,0 0.12,0 0.18,0 0.46,0 1.15,0 2.08,-0.008 4.95,-0.019 10.33,-0.09 16.13,-0.293 6.8,-0.137 14.57,-0.351 23.18,-0.566 0.04,0 0.09,0 0.13,0 8.81,-0.43 18.68,-0.723 29.51,-0.957 10.94,-0.215 23.25,-0.352 36.87,-0.352 5.08,0 9.05,0.078 12.04,0.352 3.02,0.242 5.29,0.742 6.79,1.386 1.6,0.723 2.78,1.739 3.49,3.047 0.73,1.317 1.45,3.047 2.02,5.223 0.82,2.805 1.52,6.066 2.18,9.777 0.65,3.75 1.32,7.547 1.83,11.309 0.49,3.769 0.93,7.09 1.23,10.008 0.27,2.804 0.43,4.765 0.43,5.84 0,1.972 -0.22,3.429 -0.67,4.296" /></g></g></svg>